<svg width="14" height="9" viewBox="0 0 14 9" fill="none" xmlns="http://www.w3.org/2000/svg">
<path d="M7.69526 8.78182L13.7815 2.69546C13.9224 2.55469 14 2.36677 14 2.1664C14 1.96603 13.9224 1.77812 13.7815 1.63735L13.3334 1.18913C13.0414 0.897472 12.5668 0.897472 12.2753 1.18913L7.16443 6.29999L2.04789 1.18346C1.90701 1.04269 1.7192 0.964965 1.51895 0.964965C1.31847 0.964965 1.13066 1.04269 0.989669 1.18346L0.541674 1.63168C0.400792 1.77256 0.32318 1.96036 0.32318 2.16073C0.32318 2.3611 0.400792 2.54902 0.541674 2.68979L6.63348 8.78182C6.77481 8.92292 6.9635 9.00042 7.16409 8.99998C7.36546 9.00042 7.55404 8.92292 7.69526 8.78182Z" fill="#658399"/>
</svg>
