<svg width="9" height="16" viewBox="0 0 9 16" fill="none" xmlns="http://www.w3.org/2000/svg">
<path fill-rule="evenodd" clip-rule="evenodd" d="M8.00931 0.0148057V0.0296113H7.96143H7.91356V0.0442295V0.0588526L7.86695 0.060269C7.82066 0.0616804 7.82033 0.0617791 7.81879 0.0748081C7.81736 0.0869192 7.81493 0.0881925 7.78729 0.0913362C7.75841 0.0946181 7.75735 0.0952449 7.75735 0.109059C7.75735 0.122137 7.75582 0.123381 7.73972 0.123381C7.72348 0.123381 7.72208 0.124555 7.72208 0.138186C7.72208 0.152972 7.72204 0.152992 7.69216 0.152992H7.66225L7.66067 0.169031C7.65928 0.183136 7.65712 0.185258 7.64271 0.186616C7.62831 0.187978 7.62634 0.189912 7.62634 0.202655C7.62634 0.215472 7.62458 0.21715 7.61122 0.21715C7.59786 0.21715 7.5961 0.218828 7.5961 0.231645C7.5961 0.244387 7.59413 0.246322 7.57973 0.247684C7.56618 0.248962 7.56308 0.251524 7.56178 0.2625C7.56057 0.27276 7.55714 0.276121 7.54667 0.277305C7.53546 0.278574 7.53284 0.281614 7.53154 0.29488C7.53015 0.308985 7.52817 0.310919 7.51516 0.310919C7.50208 0.310919 7.50036 0.312637 7.50036 0.325725C7.50036 0.339356 7.49896 0.340531 7.48273 0.340531C7.46658 0.340531 7.46509 0.341754 7.46509 0.35501C7.46509 0.367131 7.46284 0.369742 7.45123 0.37105C7.43969 0.372348 7.43711 0.375284 7.4358 0.388649C7.43441 0.402754 7.43243 0.404688 7.41942 0.404688C7.40633 0.404688 7.40462 0.406406 7.40462 0.419494C7.40462 0.433125 7.40322 0.4343 7.38698 0.4343C7.37083 0.4343 7.36935 0.435524 7.36935 0.44878C7.36935 0.460901 7.36709 0.463511 7.35549 0.464819C7.34394 0.466117 7.34137 0.469054 7.34005 0.482418C7.33866 0.496523 7.33669 0.498458 7.32368 0.498458C7.31059 0.498458 7.30888 0.500175 7.30888 0.513263C7.30888 0.526895 7.30748 0.528069 7.29124 0.528069C7.27509 0.528069 7.2736 0.529293 7.2736 0.542549C7.2736 0.55467 7.27135 0.557281 7.25975 0.558589C7.2482 0.559886 7.24563 0.562823 7.24431 0.576187C7.24292 0.590292 7.24095 0.592227 7.22794 0.592227C7.21485 0.592227 7.21314 0.593944 7.21314 0.607033C7.21314 0.620664 7.21174 0.621838 7.1955 0.621838C7.17935 0.621838 7.17786 0.623062 7.17786 0.636318C7.17786 0.648439 7.17561 0.65105 7.16401 0.652358C7.15246 0.653656 7.14989 0.656592 7.14857 0.669957C7.14718 0.684062 7.14521 0.685996 7.13219 0.685996C7.11911 0.685996 7.11739 0.687714 7.11739 0.700802C7.11739 0.714433 7.11599 0.715608 7.09976 0.715608C7.08361 0.715608 7.08212 0.716832 7.08212 0.730088C7.08212 0.742209 7.07987 0.744819 7.06826 0.746127C7.05672 0.747425 7.05414 0.750362 7.05283 0.763726C7.05144 0.777831 7.04946 0.779766 7.03645 0.779766C7.02337 0.779766 7.02165 0.781483 7.02165 0.794571C7.02165 0.808202 7.02025 0.809377 7.00402 0.809377C6.98787 0.809377 6.98638 0.810601 6.98638 0.823857C6.98638 0.835978 6.98413 0.838589 6.97252 0.839896C6.96098 0.841194 6.9584 0.844131 6.95709 0.857495C6.9557 0.8716 6.95372 0.873535 6.94071 0.873535C6.92762 0.873535 6.92591 0.875252 6.92591 0.88834C6.92591 0.901972 6.92451 0.903146 6.90827 0.903146C6.89212 0.903146 6.89064 0.90437 6.89064 0.917626C6.89064 0.929747 6.88839 0.932358 6.87678 0.933666C6.86524 0.934964 6.86266 0.9379 6.86135 0.951265C6.85995 0.96537 6.85798 0.967304 6.84497 0.967304C6.83195 0.967304 6.83017 0.969051 6.83017 0.981799C6.83017 0.994542 6.82819 0.996476 6.81379 0.997838C6.80025 0.999117 6.79714 1.00168 6.79585 1.01265C6.79464 1.02291 6.79121 1.02628 6.78073 1.02746C6.76952 1.02873 6.76691 1.03177 6.7656 1.04503C6.76421 1.05914 6.76224 1.06107 6.74923 1.06107C6.73621 1.06107 6.73443 1.06282 6.73443 1.07557C6.73443 1.08831 6.73245 1.09025 6.71805 1.09161C6.70451 1.09289 6.7014 1.09545 6.70011 1.10642C6.6989 1.11668 6.69547 1.12004 6.68499 1.12123C6.67378 1.1225 6.67117 1.12554 6.66986 1.1388C6.66847 1.15291 6.6665 1.15484 6.65349 1.15484C6.64047 1.15484 6.63869 1.15659 6.63869 1.16934C6.63869 1.18208 6.63671 1.18401 6.62231 1.18538C6.60876 1.18666 6.60566 1.18922 6.60436 1.20019C6.60316 1.21045 6.59972 1.21381 6.58925 1.215C6.57804 1.21627 6.57543 1.21931 6.57412 1.23257C6.57273 1.24668 6.57075 1.24861 6.55774 1.24861C6.54473 1.24861 6.54294 1.25036 6.54294 1.26311C6.54294 1.27585 6.54097 1.27778 6.52657 1.27915C6.51302 1.28042 6.50992 1.28299 6.50862 1.29396C6.50741 1.30422 6.50398 1.30758 6.49351 1.30877C6.4823 1.31004 6.47968 1.31308 6.47838 1.32634C6.47699 1.34045 6.47501 1.34238 6.462 1.34238C6.44899 1.34238 6.4472 1.34413 6.4472 1.35688C6.4472 1.36962 6.44523 1.37155 6.43082 1.37292C6.41728 1.37419 6.41418 1.37675 6.41288 1.38773C6.41167 1.39799 6.40824 1.40135 6.39776 1.40254C6.38656 1.40381 6.38394 1.40685 6.38264 1.42011C6.38125 1.43422 6.37927 1.43615 6.36626 1.43615C6.35324 1.43615 6.35146 1.4379 6.35146 1.45065C6.35146 1.46339 6.34948 1.46532 6.33508 1.46668C6.32154 1.46796 6.31843 1.47052 6.31714 1.4815C6.31593 1.49176 6.3125 1.49512 6.30202 1.49631C6.29081 1.49757 6.2882 1.50061 6.28689 1.51388C6.2855 1.52799 6.28353 1.52992 6.27052 1.52992C6.2575 1.52992 6.25572 1.53167 6.25572 1.54441C6.25572 1.55716 6.25374 1.55909 6.23934 1.56045C6.2258 1.56173 6.22269 1.56429 6.2214 1.57527C6.22019 1.58553 6.21676 1.58889 6.20628 1.59008C6.19507 1.59134 6.19246 1.59438 6.19115 1.60765C6.18976 1.62175 6.18779 1.62369 6.17478 1.62369C6.16176 1.62369 6.15998 1.62544 6.15998 1.63818C6.15998 1.65093 6.158 1.65286 6.1436 1.65422C6.13005 1.6555 6.12695 1.65806 6.12566 1.66904C6.12445 1.6793 6.12101 1.68266 6.11054 1.68384C6.09933 1.68511 6.09672 1.68815 6.09541 1.70142C6.09402 1.71552 6.09205 1.71746 6.07903 1.71746C6.06602 1.71746 6.06423 1.71921 6.06423 1.73195C6.06423 1.7447 6.06226 1.74663 6.04786 1.74799C6.03431 1.74927 6.03121 1.75183 6.02991 1.76281C6.0287 1.77307 6.02527 1.77643 6.0148 1.77761C6.00359 1.77888 6.00097 1.78192 5.99967 1.79519C5.99828 1.80929 5.9963 1.81123 5.98329 1.81123C5.97028 1.81123 5.96849 1.81297 5.96849 1.82572C5.96849 1.83847 5.96652 1.8404 5.95212 1.84176C5.93857 1.84304 5.93547 1.8456 5.93417 1.85658C5.93296 1.86684 5.92953 1.8702 5.91905 1.87138C5.90785 1.87265 5.90523 1.87569 5.90393 1.88896C5.90254 1.90306 5.90056 1.905 5.88755 1.905C5.87454 1.905 5.87275 1.90674 5.87275 1.91949C5.87275 1.93223 5.87078 1.93417 5.85637 1.93553C5.84283 1.93681 5.83973 1.93937 5.83843 1.95035C5.83722 1.96061 5.83379 1.96397 5.82331 1.96515C5.81211 1.96642 5.80949 1.96946 5.80819 1.98273C5.8068 1.99683 5.80482 1.99877 5.79181 1.99877C5.77879 1.99877 5.77701 2.00051 5.77701 2.01326C5.77701 2.026 5.77503 2.02794 5.76063 2.0293C5.74709 2.03058 5.74398 2.03314 5.74269 2.04412C5.74148 2.05438 5.73805 2.05774 5.72757 2.05892C5.71636 2.06019 5.71375 2.06323 5.71244 2.0765C5.71105 2.0906 5.70908 2.09254 5.69607 2.09254C5.68305 2.09254 5.68127 2.09428 5.68127 2.10703C5.68127 2.11977 5.67929 2.12171 5.66489 2.12307C5.65135 2.12435 5.64824 2.12691 5.64695 2.13789C5.64574 2.14815 5.64231 2.15151 5.63183 2.15269C5.62062 2.15396 5.61801 2.157 5.6167 2.17027C5.61531 2.18437 5.61334 2.1863 5.60033 2.1863C5.58731 2.1863 5.58553 2.18805 5.58553 2.2008C5.58553 2.21354 5.58355 2.21548 5.56915 2.21684C5.5556 2.21812 5.5525 2.22068 5.5512 2.23165C5.54999 2.24191 5.54656 2.24528 5.53609 2.24646C5.52488 2.24773 5.52227 2.25077 5.52096 2.26403C5.51957 2.27814 5.51759 2.28007 5.50458 2.28007C5.49157 2.28007 5.48978 2.28182 5.48978 2.29457C5.48978 2.30731 5.48781 2.30925 5.47341 2.31061C5.45976 2.3119 5.45676 2.31442 5.45544 2.32572C5.4541 2.33709 5.45144 2.3393 5.43906 2.3393C5.42553 2.3393 5.42428 2.34075 5.42428 2.35657C5.42428 2.37247 5.42308 2.37384 5.40916 2.37384C5.3958 2.37384 5.39404 2.37552 5.39404 2.38834C5.39404 2.40108 5.39207 2.40302 5.37767 2.40438C5.36402 2.40567 5.36102 2.40819 5.3597 2.41949C5.35836 2.43086 5.35569 2.43307 5.34332 2.43307C5.32978 2.43307 5.32853 2.43452 5.32853 2.45034C5.32853 2.46624 5.32734 2.46761 5.31342 2.46761C5.30005 2.46761 5.2983 2.46929 5.2983 2.48211C5.2983 2.49485 5.29632 2.49678 5.28192 2.49815C5.26828 2.49943 5.26528 2.50196 5.26395 2.51326C5.26262 2.52463 5.25995 2.52684 5.24758 2.52684C5.23404 2.52684 5.23279 2.52829 5.23279 2.54411C5.23279 2.56001 5.23159 2.56138 5.21768 2.56138C5.20431 2.56138 5.20256 2.56306 5.20256 2.57588C5.20256 2.58862 5.20058 2.59055 5.18618 2.59192C5.17254 2.5932 5.16954 2.59573 5.16821 2.60703C5.16688 2.6184 5.16421 2.6206 5.15183 2.6206C5.1383 2.6206 5.13705 2.62206 5.13705 2.63788C5.13705 2.65378 5.13585 2.65515 5.12193 2.65515C5.10857 2.65515 5.10682 2.65683 5.10682 2.66965C5.10682 2.68239 5.10484 2.68432 5.09044 2.68569C5.07679 2.68697 5.0738 2.6895 5.07247 2.7008C5.07113 2.71217 5.06847 2.71437 5.05609 2.71437C5.04256 2.71437 5.04131 2.71583 5.04131 2.73165C5.04131 2.74755 5.04011 2.74892 5.02619 2.74892C5.01283 2.74892 5.01107 2.7506 5.01107 2.76342C5.01107 2.77616 5.0091 2.77809 4.9947 2.77945C4.98105 2.78074 4.97805 2.78326 4.97673 2.79457C4.97539 2.80594 4.97273 2.80814 4.96035 2.80814C4.94682 2.80814 4.94557 2.8096 4.94557 2.82542C4.94557 2.84132 4.94437 2.84269 4.93045 2.84269C4.91709 2.84269 4.91533 2.84437 4.91533 2.85718C4.91533 2.86993 4.91336 2.87186 4.89896 2.87322C4.88531 2.87451 4.88231 2.87703 4.88099 2.88834C4.87965 2.89971 4.87699 2.90191 4.86461 2.90191C4.85107 2.90191 4.84982 2.90337 4.84982 2.91919C4.84982 2.93509 4.84863 2.93646 4.83471 2.93646C4.82134 2.93646 4.81959 2.93814 4.81959 2.95095C4.81959 2.9637 4.81762 2.96563 4.80321 2.96699C4.78967 2.96827 4.78656 2.97083 4.78527 2.98181C4.78406 2.99207 4.78063 2.99543 4.77015 2.99661C4.75895 2.99788 4.75633 3.00092 4.75503 3.01419C4.75363 3.02829 4.75166 3.03023 4.73865 3.03023C4.72563 3.03023 4.72385 3.03198 4.72385 3.04472C4.72385 3.05747 4.72187 3.0594 4.70747 3.06076C4.69393 3.06204 4.69082 3.0646 4.68953 3.07558C4.68832 3.08584 4.68489 3.0892 4.67441 3.09038C4.6632 3.09165 4.66059 3.09469 4.65928 3.10796C4.65789 3.12206 4.65592 3.124 4.64291 3.124C4.62989 3.124 4.62811 3.12574 4.62811 3.13849C4.62811 3.15124 4.62613 3.15317 4.61173 3.15453C4.59819 3.15581 4.59508 3.15837 4.59379 3.16935C4.59258 3.17961 4.58915 3.18297 4.57867 3.18415C4.56746 3.18542 4.56485 3.18846 4.56354 3.20173C4.56215 3.21583 4.56018 3.21777 4.54717 3.21777C4.53415 3.21777 4.53237 3.21951 4.53237 3.23226C4.53237 3.245 4.53039 3.24694 4.51599 3.2483C4.50244 3.24958 4.49934 3.25214 4.49804 3.26312C4.49683 3.27338 4.4934 3.27674 4.48293 3.27792C4.47172 3.27919 4.46911 3.28223 4.4678 3.2955C4.46641 3.3096 4.46443 3.31154 4.45142 3.31154C4.43841 3.31154 4.43662 3.31328 4.43662 3.32603C4.43662 3.33877 4.43465 3.34071 4.42025 3.34207C4.4067 3.34335 4.4036 3.34591 4.4023 3.35689C4.40109 3.36715 4.39766 3.37051 4.38719 3.37169C4.37598 3.37296 4.37336 3.376 4.37206 3.38927C4.37067 3.40337 4.36869 3.40531 4.35568 3.40531C4.34267 3.40531 4.34088 3.40705 4.34088 3.4198C4.34088 3.43254 4.33891 3.43448 4.3245 3.43584C4.31096 3.43712 4.30786 3.43968 4.30656 3.45066C4.30535 3.46092 4.30192 3.46428 4.29144 3.46546C4.28024 3.46673 4.27762 3.46977 4.27632 3.48304C4.27493 3.49714 4.27295 3.49907 4.25994 3.49907C4.24692 3.49907 4.24514 3.50082 4.24514 3.51357C4.24514 3.52631 4.24316 3.52825 4.22876 3.52961C4.21522 3.53089 4.21211 3.53345 4.21082 3.54442C4.20961 3.55468 4.20618 3.55805 4.1957 3.55923C4.18449 3.5605 4.18188 3.56354 4.18057 3.5768C4.17918 3.59091 4.17721 3.59284 4.1642 3.59284C4.15118 3.59284 4.1494 3.59459 4.1494 3.60734C4.1494 3.62008 4.14742 3.62202 4.13302 3.62338C4.11948 3.62466 4.11637 3.62722 4.11508 3.63819C4.11387 3.64845 4.11044 3.65181 4.09996 3.653C4.08875 3.65427 4.08614 3.65731 4.08483 3.67057C4.08344 3.68468 4.08147 3.68661 4.06846 3.68661C4.05544 3.68661 4.05366 3.68836 4.05366 3.70111C4.05366 3.71385 4.05168 3.71579 4.03728 3.71715C4.02373 3.71843 4.02063 3.72099 4.01934 3.73196C4.01813 3.74222 4.01469 3.74558 4.00422 3.74677C3.99301 3.74804 3.9904 3.75108 3.98909 3.76434C3.9877 3.77845 3.98573 3.78038 3.97271 3.78038C3.9597 3.78038 3.95791 3.78213 3.95791 3.79488C3.95791 3.80762 3.95594 3.80955 3.94154 3.81092C3.92799 3.81219 3.92489 3.81476 3.92359 3.82573C3.92238 3.83599 3.91895 3.83935 3.90848 3.84054C3.89727 3.84181 3.89465 3.84485 3.89335 3.85811C3.89196 3.87222 3.88998 3.87415 3.87697 3.87415C3.86396 3.87415 3.86217 3.8759 3.86217 3.88865C3.86217 3.90139 3.8602 3.90332 3.8458 3.90469C3.83225 3.90596 3.82915 3.90853 3.82785 3.9195C3.82664 3.92976 3.82321 3.93312 3.81273 3.93431C3.80153 3.93558 3.79891 3.93862 3.79761 3.95188C3.79622 3.96599 3.79424 3.96792 3.78123 3.96792C3.76821 3.96792 3.76643 3.96967 3.76643 3.98242C3.76643 3.99516 3.76446 3.99709 3.75005 3.99846C3.73651 3.99973 3.7334 4.0023 3.73211 4.01327C3.7309 4.02353 3.72747 4.02689 3.71699 4.02808C3.70579 4.02935 3.70317 4.03238 3.70187 4.04565C3.70047 4.05976 3.6985 4.06169 3.68549 4.06169C3.67247 4.06169 3.67069 4.06344 3.67069 4.07619C3.67069 4.08893 3.66871 4.09086 3.65431 4.09222C3.64077 4.0935 3.63766 4.09606 3.63637 4.10704C3.63516 4.1173 3.63173 4.12066 3.62125 4.12185C3.61004 4.12311 3.60743 4.12615 3.60612 4.13942C3.60473 4.15352 3.60276 4.15546 3.58975 4.15546C3.57673 4.15546 3.57495 4.15721 3.57495 4.16995C3.57495 4.1827 3.57297 4.18463 3.55857 4.18599C3.54503 4.18727 3.54192 4.18983 3.54063 4.20081C3.53942 4.21107 3.53599 4.21443 3.52551 4.21562C3.5143 4.21688 3.51169 4.21992 3.51038 4.23319C3.50899 4.24729 3.50702 4.24923 3.49401 4.24923C3.48099 4.24923 3.47921 4.25098 3.47921 4.26372C3.47921 4.27647 3.47723 4.2784 3.46283 4.27976C3.44928 4.28104 3.44618 4.2836 3.44488 4.29458C3.44368 4.30484 3.44024 4.3082 3.42977 4.30938C3.41856 4.31065 3.41595 4.31369 3.41464 4.32696C3.41325 4.34106 3.41127 4.343 3.39826 4.343C3.38525 4.343 3.38346 4.34475 3.38346 4.35749C3.38346 4.37024 3.38149 4.37217 3.36709 4.37353C3.35354 4.37481 3.35044 4.37737 3.34914 4.38835C3.34793 4.39861 3.3445 4.40197 3.33403 4.40315C3.32282 4.40442 3.3202 4.40746 3.3189 4.42073C3.31751 4.43483 3.31553 4.43677 3.30252 4.43677C3.28951 4.43677 3.28772 4.43851 3.28772 4.45126C3.28772 4.464 3.28575 4.46594 3.27135 4.4673C3.2578 4.46858 3.2547 4.47114 3.2534 4.48212C3.25219 4.49238 3.24876 4.49574 3.23828 4.49692C3.22708 4.49819 3.22446 4.50123 3.22316 4.5145C3.22177 4.5286 3.21979 4.53054 3.20678 4.53054C3.19376 4.53054 3.19198 4.53228 3.19198 4.54503C3.19198 4.55777 3.19 4.55971 3.1756 4.56107C3.16206 4.56235 3.15895 4.56491 3.15766 4.57589C3.15645 4.58615 3.15302 4.58951 3.14254 4.59069C3.13134 4.59196 3.12872 4.595 3.12741 4.60827C3.12602 4.62237 3.12405 4.62431 3.11104 4.62431C3.09802 4.62431 3.09624 4.62605 3.09624 4.6388C3.09624 4.65154 3.09426 4.65348 3.07986 4.65484C3.06632 4.65612 3.06321 4.65868 3.06192 4.66966C3.06071 4.67992 3.05728 4.68328 3.0468 4.68446C3.03559 4.68573 3.03298 4.68877 3.03167 4.70204C3.03028 4.71614 3.02831 4.71808 3.0153 4.71808C3.00228 4.71808 3.0005 4.71982 3.0005 4.73257C3.0005 4.74531 2.99852 4.74725 2.98412 4.74861C2.97057 4.74989 2.96747 4.75245 2.96618 4.76342C2.96497 4.77369 2.96153 4.77705 2.95106 4.77823C2.93985 4.7795 2.93724 4.78254 2.93593 4.7958C2.93454 4.80991 2.93257 4.81184 2.91955 4.81184C2.90654 4.81184 2.90475 4.81359 2.90475 4.82634C2.90475 4.83908 2.90278 4.84102 2.88838 4.84238C2.87483 4.84366 2.87173 4.84622 2.87043 4.85719C2.86922 4.86745 2.86579 4.87082 2.85532 4.872C2.84411 4.87327 2.84149 4.87631 2.84019 4.88957C2.8388 4.90368 2.83682 4.90561 2.82381 4.90561C2.8108 4.90561 2.80901 4.90736 2.80901 4.92011C2.80901 4.93285 2.80704 4.93479 2.79264 4.93615C2.77909 4.93743 2.77599 4.93999 2.77469 4.95096C2.77348 4.96122 2.77005 4.96458 2.75957 4.96577C2.74837 4.96704 2.74575 4.97008 2.74445 4.98334C2.74306 4.99745 2.74108 4.99938 2.72807 4.99938C2.71498 4.99938 2.71327 5.0011 2.71327 5.01419C2.71327 5.02782 2.71187 5.02899 2.69563 5.02899C2.67948 5.02899 2.678 5.03022 2.678 5.04347C2.678 5.0556 2.67575 5.05821 2.66414 5.05951C2.6526 5.06081 2.65002 5.06375 2.64871 5.07711C2.64732 5.09122 2.64534 5.09315 2.63233 5.09315C2.61924 5.09315 2.61753 5.09487 2.61753 5.10796C2.61753 5.12159 2.61613 5.12276 2.59989 5.12276C2.58374 5.12276 2.58226 5.12399 2.58226 5.13724C2.58226 5.14936 2.58 5.15198 2.5684 5.15328C2.55685 5.15458 2.55428 5.15752 2.55296 5.17088C2.55157 5.18499 2.5496 5.18692 2.53659 5.18692C2.5235 5.18692 2.52179 5.18864 2.52179 5.20173C2.52179 5.21536 2.52039 5.21653 2.50415 5.21653C2.488 5.21653 2.48651 5.21776 2.48651 5.23101C2.48651 5.24313 2.48426 5.24574 2.47266 5.24705C2.46111 5.24835 2.45854 5.25129 2.45722 5.26465C2.45583 5.27876 2.45386 5.28069 2.44085 5.28069C2.42776 5.28069 2.42605 5.28241 2.42605 5.2955C2.42605 5.30913 2.42464 5.3103 2.40841 5.3103C2.39226 5.3103 2.39077 5.31153 2.39077 5.32478C2.39077 5.3369 2.38852 5.33951 2.37691 5.34082C2.36537 5.34212 2.3628 5.34506 2.36148 5.35842C2.36009 5.37253 2.35811 5.37446 2.3451 5.37446C2.33202 5.37446 2.3303 5.37618 2.3303 5.38927C2.3303 5.4029 2.3289 5.40407 2.31267 5.40407C2.29652 5.40407 2.29503 5.40529 2.29503 5.41855C2.29503 5.43067 2.29278 5.43328 2.28117 5.43459C2.26963 5.43589 2.26705 5.43883 2.26574 5.45219C2.26435 5.46629 2.26237 5.46823 2.24936 5.46823C2.23628 5.46823 2.23456 5.46995 2.23456 5.48304C2.23456 5.49667 2.23316 5.49784 2.21693 5.49784C2.20078 5.49784 2.19929 5.49906 2.19929 5.51232C2.19929 5.52444 2.19704 5.52705 2.18543 5.52836C2.17389 5.52966 2.17131 5.53259 2.17 5.54596C2.16861 5.56006 2.16663 5.562 2.15362 5.562C2.14053 5.562 2.13882 5.56372 2.13882 5.5768C2.13882 5.59044 2.13742 5.59161 2.12118 5.59161C2.10503 5.59161 2.10355 5.59283 2.10355 5.60609C2.10355 5.61821 2.10129 5.62082 2.08969 5.62213C2.07815 5.62343 2.07557 5.62636 2.07426 5.63973C2.07286 5.65383 2.07089 5.65577 2.05788 5.65577C2.04479 5.65577 2.04308 5.65749 2.04308 5.67057C2.04308 5.6842 2.04168 5.68538 2.02544 5.68538C2.00929 5.68538 2.00781 5.6866 2.00781 5.69986C2.00781 5.71198 2.00555 5.71459 1.99395 5.7159C1.9824 5.7172 1.97983 5.72013 1.97851 5.7335C1.97712 5.7476 1.97515 5.74954 1.96214 5.74954C1.94905 5.74954 1.94734 5.75125 1.94734 5.76434C1.94734 5.77797 1.94594 5.77915 1.9297 5.77915C1.91355 5.77915 1.91206 5.78037 1.91206 5.79363C1.91206 5.80575 1.90981 5.80836 1.89821 5.80967C1.88666 5.81097 1.88409 5.8139 1.88277 5.82727C1.88138 5.84137 1.87941 5.84331 1.86639 5.84331C1.85331 5.84331 1.85159 5.84502 1.85159 5.85811C1.85159 5.87174 1.85019 5.87292 1.83396 5.87292C1.81781 5.87292 1.81632 5.87414 1.81632 5.8874C1.81632 5.89952 1.81407 5.90213 1.80246 5.90344C1.79092 5.90474 1.78834 5.90767 1.78703 5.92104C1.78564 5.93514 1.78366 5.93708 1.77065 5.93708C1.75757 5.93708 1.75585 5.93879 1.75585 5.95188C1.75585 5.96551 1.75445 5.96669 1.73822 5.96669C1.72207 5.96669 1.72058 5.96791 1.72058 5.98117C1.72058 5.99329 1.71833 5.9959 1.70672 5.99721C1.69518 5.9985 1.6926 6.00144 1.69129 6.01481C1.6899 6.02891 1.68792 6.03085 1.67491 6.03085C1.66182 6.03085 1.66011 6.03256 1.66011 6.04565C1.66011 6.05928 1.65871 6.06046 1.64247 6.06046C1.62632 6.06046 1.62484 6.06168 1.62484 6.07494C1.62484 6.08706 1.62259 6.08967 1.61098 6.09098C1.59944 6.09227 1.59686 6.09521 1.59555 6.10857C1.59416 6.12268 1.59218 6.12461 1.57917 6.12461C1.56608 6.12461 1.56437 6.12633 1.56437 6.13942C1.56437 6.15305 1.56297 6.15423 1.54673 6.15423C1.53058 6.15423 1.5291 6.15545 1.5291 6.16871C1.5291 6.18083 1.52684 6.18344 1.51524 6.18474C1.50369 6.18604 1.50112 6.18898 1.4998 6.20234C1.49841 6.21645 1.49644 6.21838 1.48343 6.21838C1.47034 6.21838 1.46863 6.2201 1.46863 6.23319C1.46863 6.24682 1.46723 6.24799 1.45099 6.24799C1.43484 6.24799 1.43335 6.24922 1.43335 6.26247C1.43335 6.2746 1.4311 6.27721 1.4195 6.27851C1.40795 6.27981 1.40538 6.28275 1.40406 6.29611C1.40267 6.31022 1.4007 6.31215 1.38769 6.31215C1.3746 6.31215 1.37289 6.31387 1.37289 6.32696C1.37289 6.34059 1.37149 6.34176 1.35525 6.34176C1.3391 6.34176 1.33761 6.34299 1.33761 6.35624C1.33761 6.36836 1.33536 6.37098 1.32376 6.37228C1.31221 6.37358 1.30964 6.37652 1.30832 6.38988C1.30693 6.40399 1.30495 6.40592 1.29194 6.40592C1.27886 6.40592 1.27714 6.40764 1.27714 6.42073C1.27714 6.43436 1.27574 6.43553 1.25951 6.43553C1.24336 6.43553 1.24187 6.43676 1.24187 6.45001C1.24187 6.46213 1.23962 6.46475 1.22801 6.46605C1.21647 6.46735 1.21389 6.47029 1.21258 6.48365C1.21119 6.49776 1.20921 6.49969 1.1962 6.49969C1.18312 6.49969 1.1814 6.50141 1.1814 6.5145C1.1814 6.52813 1.18 6.5293 1.16377 6.5293C1.14762 6.5293 1.14613 6.53053 1.14613 6.54378C1.14613 6.5559 1.14388 6.55851 1.13227 6.55982C1.12073 6.56112 1.11815 6.56406 1.11684 6.57742C1.11545 6.59153 1.11347 6.59346 1.10046 6.59346C1.08737 6.59346 1.08566 6.59518 1.08566 6.60827C1.08566 6.6219 1.08426 6.62307 1.06802 6.62307C1.05187 6.62307 1.05039 6.6243 1.05039 6.63755C1.05039 6.64967 1.04813 6.65228 1.03653 6.65359C1.02499 6.65489 1.02241 6.65783 1.0211 6.67119C1.0197 6.6853 1.01773 6.68723 1.00472 6.68723C0.991632 6.68723 0.989919 6.68895 0.989919 6.70204C0.989919 6.71567 0.988518 6.71684 0.972282 6.71684C0.956132 6.71684 0.954645 6.71806 0.954645 6.73132C0.954645 6.74344 0.952393 6.74605 0.940788 6.74736C0.929244 6.74866 0.926669 6.7516 0.925354 6.76496C0.923963 6.77906 0.921987 6.781 0.908977 6.781C0.89589 6.781 0.894177 6.78272 0.894177 6.7958C0.894177 6.80944 0.892776 6.81061 0.87654 6.81061C0.86039 6.81061 0.858904 6.81183 0.858904 6.82509C0.858904 6.83721 0.856651 6.83982 0.845046 6.84113C0.833502 6.84243 0.830927 6.84536 0.829612 6.85873C0.828221 6.87283 0.826246 6.87477 0.813235 6.87477C0.800148 6.87477 0.798435 6.87649 0.798435 6.88957C0.798435 6.90321 0.797034 6.90438 0.780798 6.90438C0.764648 6.90438 0.763162 6.9056 0.763162 6.91886C0.763162 6.93098 0.760909 6.93359 0.749304 6.9349C0.73776 6.9362 0.735185 6.93913 0.73387 6.9525C0.732479 6.9666 0.730504 6.96854 0.717493 6.96854C0.704407 6.96854 0.702693 6.97026 0.702693 6.98334C0.702693 6.99697 0.701292 6.99815 0.685057 6.99815C0.668907 6.99815 0.66742 6.99937 0.66742 7.01263C0.66742 7.02475 0.665168 7.02736 0.653563 7.02867C0.642018 7.02997 0.639443 7.0329 0.638128 7.04627C0.636737 7.06037 0.634762 7.06231 0.621751 7.06231C0.608665 7.06231 0.606952 7.06402 0.606952 7.07711C0.606952 7.09074 0.605551 7.09192 0.589315 7.09192C0.573165 7.09192 0.571678 7.09314 0.571678 7.1064C0.571678 7.11852 0.569426 7.12113 0.557821 7.12244C0.546276 7.12374 0.543702 7.12667 0.542386 7.14004C0.540996 7.15414 0.53902 7.15608 0.526009 7.15608C0.512923 7.15608 0.51121 7.15779 0.51121 7.17088C0.51121 7.18451 0.509809 7.18569 0.493573 7.18569C0.477423 7.18569 0.475936 7.18691 0.475936 7.20017C0.475936 7.21229 0.473684 7.2149 0.462079 7.21621C0.450535 7.2175 0.44796 7.22044 0.446645 7.23381C0.445254 7.24791 0.443278 7.24985 0.430268 7.24985C0.417181 7.24985 0.415468 7.25156 0.415468 7.26465C0.415468 7.27828 0.414067 7.27946 0.397831 7.27946C0.381681 7.27946 0.380195 7.28068 0.380195 7.29394C0.380195 7.30606 0.377942 7.30867 0.366337 7.30998C0.354793 7.31127 0.352218 7.31421 0.350903 7.32758C0.349512 7.34168 0.347537 7.34361 0.334526 7.34361C0.321439 7.34361 0.319726 7.34533 0.319726 7.35842C0.319726 7.37205 0.318325 7.37323 0.302089 7.37323C0.285939 7.37323 0.284453 7.37445 0.284453 7.38771C0.284453 7.39983 0.2822 7.40244 0.270595 7.40375C0.259051 7.40504 0.256476 7.40798 0.255161 7.42134C0.25377 7.43545 0.251795 7.43738 0.238784 7.43738C0.225768 7.43738 0.223984 7.43913 0.223984 7.45188C0.223984 7.46462 0.222009 7.46656 0.207607 7.46792C0.193206 7.46928 0.191039 7.4714 0.189653 7.4855C0.188263 7.49961 0.186287 7.50154 0.173276 7.50154C0.16019 7.50154 0.158477 7.50326 0.158477 7.51635C0.158477 7.52951 0.156799 7.53115 0.14336 7.53115H0.128242V7.56323V7.59531H0.113619C0.099515 7.59531 0.098875 7.59635 0.0955241 7.62464C0.0923142 7.6517 0.0910141 7.65409 0.0786483 7.65548C0.0653453 7.65699 0.0652442 7.65731 0.0638031 7.70265L0.0623569 7.7483H0.0476129H0.0328636L0.0314224 7.79642C0.0299913 7.84419 0.0298856 7.84455 0.0168395 7.84604L0.0036975 7.84753L0.0010771 7.92377C-0.000359032 7.96569 -0.000359032 8.0343 0.0010771 8.07623L0.0036975 8.15247L0.0168395 8.15396C0.0298856 8.15545 0.0299913 8.15581 0.0314224 8.20358L0.0328636 8.2517H0.0476129H0.0623569L0.0638031 8.29735C0.0652442 8.34269 0.0653453 8.34301 0.0786483 8.34452C0.090994 8.34591 0.0923192 8.34831 0.0954887 8.37508C0.0986583 8.40184 0.0999834 8.40424 0.112329 8.40564C0.125048 8.40708 0.125798 8.40872 0.127224 8.438C0.128706 8.46854 0.128872 8.46885 0.143601 8.46885C0.156768 8.46885 0.158477 8.47054 0.158477 8.48365C0.158477 8.49674 0.16019 8.49846 0.173276 8.49846C0.186287 8.49846 0.188263 8.50039 0.189653 8.5145C0.191039 8.5286 0.193206 8.53072 0.207607 8.53208C0.222009 8.53344 0.223984 8.53538 0.223984 8.54812C0.223984 8.56087 0.225768 8.56262 0.238784 8.56262C0.251795 8.56262 0.25377 8.56455 0.255161 8.57866C0.256466 8.59192 0.259081 8.59496 0.270288 8.59623C0.280764 8.59741 0.284196 8.60077 0.285405 8.61104C0.2867 8.62201 0.289804 8.62457 0.303349 8.62585C0.317751 8.62721 0.319726 8.62915 0.319726 8.64189C0.319726 8.65464 0.32151 8.65638 0.334526 8.65638C0.347537 8.65638 0.349512 8.65832 0.350903 8.67242C0.352208 8.68569 0.354823 8.68873 0.36603 8.69C0.376506 8.69118 0.379938 8.69454 0.381147 8.7048C0.382442 8.71578 0.385546 8.71834 0.399091 8.71962C0.413493 8.72098 0.415468 8.72292 0.415468 8.73566C0.415468 8.74841 0.417252 8.75015 0.430268 8.75015C0.443278 8.75015 0.445254 8.75209 0.446645 8.76619C0.44795 8.77946 0.450565 8.7825 0.461772 8.78377C0.472248 8.78495 0.47568 8.78831 0.476889 8.79857C0.478184 8.80955 0.481288 8.81211 0.494833 8.81339C0.509234 8.81475 0.51121 8.81669 0.51121 8.82943C0.51121 8.84218 0.512994 8.84392 0.526009 8.84392C0.53902 8.84392 0.540996 8.84586 0.542386 8.85996C0.543691 8.87323 0.546307 8.87627 0.557514 8.87754C0.56799 8.87872 0.571421 8.88208 0.572631 8.89234C0.573926 8.90332 0.57703 8.90588 0.590575 8.90716C0.604976 8.90852 0.606952 8.91045 0.606952 8.9232C0.606952 8.93595 0.608735 8.93769 0.621751 8.93769C0.634762 8.93769 0.636737 8.93963 0.638128 8.95373C0.639433 8.967 0.642049 8.97004 0.653255 8.97131C0.663732 8.97249 0.667163 8.97585 0.668373 8.98611C0.669668 8.99709 0.672771 8.99965 0.686316 9.00093C0.700718 9.00229 0.702693 9.00422 0.702693 9.01697C0.702693 9.02971 0.704477 9.03146 0.717493 9.03146C0.730504 9.03146 0.732479 9.0334 0.73387 9.0475C0.735185 9.06087 0.73776 9.0638 0.749304 9.0651C0.760909 9.06641 0.763162 9.06902 0.763162 9.08114C0.763162 9.0944 0.764648 9.09562 0.780798 9.09562C0.797034 9.09562 0.798435 9.09679 0.798435 9.11042C0.798435 9.12351 0.800148 9.12523 0.813235 9.12523C0.826246 9.12523 0.828221 9.12717 0.829612 9.14127C0.830927 9.15464 0.833502 9.15757 0.845046 9.15887C0.856651 9.16018 0.858904 9.16279 0.858904 9.17491C0.858904 9.18817 0.86039 9.18939 0.87654 9.18939C0.892776 9.18939 0.894177 9.19056 0.894177 9.2042C0.894177 9.21728 0.89589 9.219 0.908977 9.219C0.921987 9.219 0.923963 9.22093 0.925354 9.23504C0.926669 9.2484 0.929244 9.25134 0.940788 9.25264C0.952393 9.25395 0.954645 9.25656 0.954645 9.26868C0.954645 9.28193 0.956132 9.28316 0.972282 9.28316C0.988518 9.28316 0.989919 9.28433 0.989919 9.29796C0.989919 9.31105 0.991632 9.31277 1.00472 9.31277C1.01773 9.31277 1.0197 9.3147 1.0211 9.32881C1.02241 9.34217 1.02499 9.34511 1.03653 9.34641C1.04813 9.34772 1.05039 9.35033 1.05039 9.36245C1.05039 9.3757 1.05187 9.37693 1.06802 9.37693C1.08426 9.37693 1.08566 9.3781 1.08566 9.39173C1.08566 9.40482 1.08737 9.40654 1.10046 9.40654C1.11347 9.40654 1.11545 9.40847 1.11684 9.42258C1.11815 9.43594 1.12073 9.43888 1.13227 9.44018C1.14388 9.44149 1.14613 9.4441 1.14613 9.45622C1.14613 9.46947 1.14762 9.4707 1.16377 9.4707C1.18 9.4707 1.1814 9.47187 1.1814 9.4855C1.1814 9.49859 1.18312 9.50031 1.1962 9.50031C1.20921 9.50031 1.21119 9.50224 1.21258 9.51635C1.21389 9.52971 1.21647 9.53265 1.22801 9.53395C1.23962 9.53525 1.24187 9.53787 1.24187 9.54999C1.24187 9.56324 1.24336 9.56447 1.25951 9.56447C1.27574 9.56447 1.27714 9.56564 1.27714 9.57927C1.27714 9.59236 1.27886 9.59408 1.29194 9.59408C1.30495 9.59408 1.30693 9.59601 1.30832 9.61012C1.30964 9.62348 1.31221 9.62642 1.32376 9.62772C1.33536 9.62902 1.33761 9.63163 1.33761 9.64376C1.33761 9.65701 1.3391 9.65824 1.35525 9.65824C1.37149 9.65824 1.37289 9.65941 1.37289 9.67304C1.37289 9.68613 1.3746 9.68785 1.38769 9.68785C1.4007 9.68785 1.40267 9.68978 1.40406 9.70389C1.40537 9.71715 1.40798 9.72019 1.41919 9.72146C1.42967 9.72264 1.4331 9.72601 1.43431 9.73627C1.4356 9.74724 1.43871 9.7498 1.45225 9.75108C1.46665 9.75244 1.46863 9.75438 1.46863 9.76712C1.46863 9.77987 1.47041 9.78162 1.48343 9.78162C1.49644 9.78162 1.49841 9.78355 1.4998 9.79766C1.50111 9.81092 1.50372 9.81396 1.51493 9.81523C1.52541 9.81641 1.52884 9.81978 1.53005 9.83004C1.53134 9.84101 1.53445 9.84357 1.54799 9.84485C1.56239 9.84621 1.56437 9.84815 1.56437 9.86089C1.56437 9.87364 1.56615 9.87539 1.57917 9.87539C1.59218 9.87539 1.59416 9.87732 1.59555 9.89143C1.59685 9.90469 1.59947 9.90773 1.61067 9.909C1.62115 9.91018 1.62458 9.91354 1.62579 9.92381C1.62709 9.93478 1.63019 9.93734 1.64373 9.93862C1.65814 9.93998 1.66011 9.94192 1.66011 9.95466C1.66011 9.96741 1.6619 9.96915 1.67491 9.96915C1.68792 9.96915 1.6899 9.97109 1.69129 9.98519C1.69259 9.99846 1.69521 10.0015 1.70641 10.0028C1.71689 10.004 1.72032 10.0073 1.72153 10.0176C1.72283 10.0286 1.72593 10.0311 1.73948 10.0324C1.75388 10.0338 1.75585 10.0357 1.75585 10.0484C1.75585 10.0612 1.75764 10.0629 1.77065 10.0629C1.78366 10.0629 1.78564 10.0649 1.78703 10.079C1.78833 10.0922 1.79095 10.0953 1.80216 10.0965C1.81263 10.0977 1.81606 10.1011 1.81727 10.1113C1.81857 10.1223 1.82167 10.1249 1.83522 10.1262C1.84962 10.1275 1.85159 10.1295 1.85159 10.1422C1.85159 10.1549 1.85338 10.1567 1.86639 10.1567C1.87941 10.1567 1.88138 10.1586 1.88277 10.1727C1.88408 10.186 1.88669 10.189 1.8979 10.1903C1.90837 10.1915 1.91181 10.1949 1.91302 10.2051C1.91431 10.2161 1.91741 10.2186 1.93096 10.2199C1.94536 10.2213 1.94734 10.2232 1.94734 10.236C1.94734 10.2487 1.94912 10.2505 1.96214 10.2505C1.97515 10.2505 1.97712 10.2524 1.97851 10.2665C1.97982 10.2798 1.98243 10.2828 1.99364 10.2841C2.00412 10.2853 2.00755 10.2886 2.00876 10.2989C2.01005 10.3099 2.01316 10.3124 2.0267 10.3137C2.0411 10.3151 2.04308 10.317 2.04308 10.3297C2.04308 10.3425 2.04486 10.3442 2.05788 10.3442C2.07089 10.3442 2.07286 10.3462 2.07426 10.3603C2.07556 10.3735 2.07818 10.3766 2.08938 10.3778C2.09986 10.379 2.10329 10.3824 2.1045 10.3927C2.10579 10.4036 2.1089 10.4062 2.12244 10.4075C2.13685 10.4088 2.13882 10.4108 2.13882 10.4235C2.13882 10.4363 2.1406 10.438 2.15362 10.438C2.16663 10.438 2.16861 10.4399 2.17 10.454C2.1713 10.4673 2.17392 10.4703 2.18512 10.4716C2.1956 10.4728 2.19903 10.4762 2.20024 10.4864C2.20154 10.4974 2.20464 10.5 2.21819 10.5012C2.23259 10.5026 2.23456 10.5045 2.23456 10.5173C2.23456 10.53 2.23635 10.5318 2.24936 10.5318C2.26237 10.5318 2.26435 10.5337 2.26574 10.5478C2.26704 10.5611 2.26966 10.5641 2.28087 10.5654C2.29134 10.5666 2.29477 10.5699 2.29598 10.5802C2.29728 10.5912 2.30038 10.5937 2.31393 10.595C2.32833 10.5964 2.3303 10.5983 2.3303 10.611C2.3303 10.6238 2.33209 10.6255 2.3451 10.6255C2.35811 10.6255 2.36009 10.6275 2.36148 10.6416C2.36279 10.6548 2.3654 10.6579 2.37661 10.6592C2.38708 10.6603 2.39052 10.6637 2.39172 10.674C2.39302 10.6849 2.39612 10.6875 2.40967 10.6888C2.42407 10.6901 2.42605 10.6921 2.42605 10.7048C2.42605 10.7176 2.42783 10.7193 2.44085 10.7193C2.45386 10.7193 2.45583 10.7212 2.45722 10.7353C2.45853 10.7486 2.46114 10.7517 2.47235 10.7529C2.48283 10.7541 2.48626 10.7575 2.48747 10.7677C2.48876 10.7787 2.49187 10.7813 2.50541 10.7825C2.51981 10.7839 2.52179 10.7858 2.52179 10.7986C2.52179 10.8113 2.52357 10.8131 2.53659 10.8131C2.5496 10.8131 2.55157 10.815 2.55296 10.8291C2.55427 10.8424 2.55688 10.8454 2.56809 10.8467C2.57857 10.8479 2.582 10.8512 2.58321 10.8615C2.5845 10.8725 2.58761 10.875 2.60115 10.8763C2.61555 10.8777 2.61753 10.8796 2.61753 10.8924C2.61753 10.9051 2.61931 10.9068 2.63233 10.9068C2.64534 10.9068 2.64732 10.9088 2.64871 10.9229C2.65001 10.9362 2.65263 10.9392 2.66383 10.9405C2.67431 10.9416 2.67774 10.945 2.67895 10.9553C2.68025 10.9662 2.68335 10.9688 2.69689 10.9701C2.7113 10.9714 2.71327 10.9734 2.71327 10.9861C2.71327 10.9989 2.71505 11.0006 2.72807 11.0006C2.74108 11.0006 2.74306 11.0026 2.74445 11.0167C2.74575 11.0299 2.74837 11.033 2.75957 11.0342C2.77005 11.0354 2.77348 11.0388 2.77469 11.049C2.77599 11.06 2.77909 11.0626 2.79264 11.0639C2.80704 11.0652 2.80901 11.0671 2.80901 11.0799C2.80901 11.0926 2.8108 11.0944 2.82381 11.0944C2.83682 11.0944 2.8388 11.0963 2.84019 11.1104C2.84149 11.1237 2.84411 11.1267 2.85532 11.128C2.86579 11.1292 2.86922 11.1325 2.87043 11.1428C2.87173 11.1538 2.87483 11.1563 2.88838 11.1576C2.90278 11.159 2.90475 11.1609 2.90475 11.1737C2.90475 11.1864 2.90654 11.1882 2.91955 11.1882C2.93257 11.1882 2.93454 11.1901 2.93593 11.2042C2.93724 11.2175 2.93985 11.2205 2.95106 11.2218C2.96153 11.223 2.96497 11.2263 2.96618 11.2366C2.96747 11.2476 2.97057 11.2501 2.98412 11.2514C2.99852 11.2528 3.0005 11.2547 3.0005 11.2674C3.0005 11.2802 3.00228 11.2819 3.0153 11.2819C3.02831 11.2819 3.03028 11.2839 3.03167 11.298C3.03298 11.3112 3.03559 11.3143 3.0468 11.3155C3.05728 11.3167 3.06071 11.3201 3.06192 11.3303C3.06321 11.3413 3.06632 11.3439 3.07986 11.3452C3.09426 11.3465 3.09624 11.3485 3.09624 11.3612C3.09624 11.3739 3.09802 11.3757 3.11104 11.3757C3.12405 11.3757 3.12602 11.3776 3.12741 11.3917C3.12872 11.405 3.13134 11.408 3.14254 11.4093C3.15302 11.4105 3.15645 11.4139 3.15766 11.4241C3.15895 11.4351 3.16206 11.4377 3.1756 11.4389C3.19 11.4403 3.19198 11.4422 3.19198 11.455C3.19198 11.4677 3.19376 11.4695 3.20678 11.4695C3.21979 11.4695 3.22177 11.4714 3.22316 11.4855C3.22446 11.4988 3.22708 11.5018 3.23828 11.5031C3.24876 11.5043 3.25219 11.5076 3.2534 11.5179C3.2547 11.5289 3.2578 11.5314 3.27135 11.5327C3.28575 11.5341 3.28772 11.536 3.28772 11.5487C3.28772 11.5615 3.28951 11.5632 3.30252 11.5632C3.31553 11.5632 3.31751 11.5652 3.3189 11.5793C3.3202 11.5925 3.32282 11.5956 3.33403 11.5968C3.3445 11.598 3.34793 11.6014 3.34914 11.6117C3.35044 11.6226 3.35354 11.6252 3.36709 11.6265C3.38149 11.6278 3.38346 11.6298 3.38346 11.6425C3.38346 11.6553 3.38525 11.657 3.39826 11.657C3.41127 11.657 3.41325 11.6589 3.41464 11.673C3.41595 11.6863 3.41856 11.6893 3.42977 11.6906C3.44024 11.6918 3.44368 11.6952 3.44488 11.7054C3.44618 11.7164 3.44928 11.719 3.46283 11.7202C3.47723 11.7216 3.47921 11.7235 3.47921 11.7363C3.47921 11.749 3.48099 11.7508 3.49401 11.7508C3.50702 11.7508 3.50899 11.7527 3.51038 11.7668C3.51169 11.7801 3.5143 11.7831 3.52551 11.7844C3.53599 11.7856 3.53942 11.7889 3.54063 11.7992C3.54192 11.8102 3.54503 11.8127 3.55857 11.814C3.57297 11.8154 3.57495 11.8173 3.57495 11.83C3.57495 11.8428 3.57673 11.8445 3.58975 11.8445C3.60276 11.8445 3.60473 11.8465 3.60612 11.8606C3.60743 11.8738 3.61004 11.8769 3.62125 11.8782C3.63173 11.8793 3.63516 11.8827 3.63637 11.893C3.63766 11.9039 3.64077 11.9065 3.65431 11.9078C3.66871 11.9091 3.67069 11.9111 3.67069 11.9238C3.67069 11.9366 3.67247 11.9383 3.68549 11.9383C3.6985 11.9383 3.70047 11.9402 3.70187 11.9543C3.70317 11.9676 3.70579 11.9707 3.71699 11.9719C3.72747 11.9731 3.7309 11.9765 3.73211 11.9867C3.7334 11.9977 3.73651 12.0003 3.75005 12.0015C3.76446 12.0029 3.76643 12.0048 3.76643 12.0176C3.76643 12.0303 3.76821 12.0321 3.78123 12.0321C3.79424 12.0321 3.79622 12.034 3.79761 12.0481C3.79891 12.0614 3.80153 12.0644 3.81273 12.0657C3.82321 12.0669 3.82664 12.0702 3.82785 12.0805C3.82915 12.0915 3.83225 12.094 3.8458 12.0953C3.8602 12.0967 3.86217 12.0986 3.86217 12.1114C3.86217 12.1241 3.86396 12.1258 3.87697 12.1258C3.88998 12.1258 3.89196 12.1278 3.89335 12.1419C3.89465 12.1552 3.89727 12.1582 3.90848 12.1595C3.91895 12.1606 3.92238 12.164 3.92359 12.1743C3.92489 12.1852 3.92799 12.1878 3.94154 12.1891C3.95594 12.1904 3.95791 12.1924 3.95791 12.2051C3.95791 12.2179 3.9597 12.2196 3.97271 12.2196C3.98573 12.2196 3.9877 12.2216 3.98909 12.2357C3.9904 12.2489 3.99301 12.252 4.00422 12.2532C4.01469 12.2544 4.01813 12.2578 4.01934 12.268C4.02063 12.279 4.02373 12.2816 4.03728 12.2829C4.05168 12.2842 4.05366 12.2861 4.05366 12.2989C4.05366 12.3116 4.05544 12.3134 4.06846 12.3134C4.08147 12.3134 4.08344 12.3153 4.08483 12.3294C4.08614 12.3427 4.08875 12.3457 4.09996 12.347C4.11044 12.3482 4.11387 12.3515 4.11508 12.3618C4.11637 12.3728 4.11948 12.3753 4.13302 12.3766C4.14742 12.378 4.1494 12.3799 4.1494 12.3927C4.1494 12.4054 4.15118 12.4072 4.1642 12.4072C4.17721 12.4072 4.17918 12.4091 4.18057 12.4232C4.18188 12.4365 4.18449 12.4395 4.1957 12.4408C4.20618 12.442 4.20961 12.4453 4.21082 12.4556C4.21211 12.4666 4.21522 12.4691 4.22876 12.4704C4.24316 12.4718 4.24514 12.4737 4.24514 12.4864C4.24514 12.4992 4.24692 12.5009 4.25994 12.5009C4.27295 12.5009 4.27493 12.5029 4.27632 12.517C4.27762 12.5302 4.28024 12.5333 4.29144 12.5345C4.30192 12.5357 4.30535 12.5391 4.30656 12.5493C4.30786 12.5603 4.31096 12.5629 4.3245 12.5642C4.33891 12.5655 4.34088 12.5675 4.34088 12.5802C4.34088 12.5929 4.34267 12.5947 4.35568 12.5947C4.36869 12.5947 4.37067 12.5966 4.37206 12.6107C4.37336 12.624 4.37598 12.627 4.38719 12.6283C4.39766 12.6295 4.40109 12.6329 4.4023 12.6431C4.4036 12.6541 4.4067 12.6567 4.42025 12.6579C4.43465 12.6593 4.43662 12.6612 4.43662 12.674C4.43662 12.6867 4.43841 12.6885 4.45142 12.6885C4.46443 12.6885 4.46641 12.6904 4.4678 12.7045C4.46911 12.7178 4.47172 12.7208 4.48293 12.7221C4.4934 12.7233 4.49683 12.7266 4.49804 12.7369C4.49934 12.7479 4.50244 12.7504 4.51599 12.7517C4.53039 12.7531 4.53237 12.755 4.53237 12.7677C4.53237 12.7805 4.53415 12.7822 4.54717 12.7822C4.56018 12.7822 4.56215 12.7842 4.56354 12.7983C4.56485 12.8115 4.56746 12.8146 4.57867 12.8158C4.58915 12.817 4.59258 12.8204 4.59379 12.8307C4.59508 12.8416 4.59819 12.8442 4.61173 12.8455C4.62613 12.8468 4.62811 12.8488 4.62811 12.8615C4.62811 12.8743 4.62989 12.876 4.64291 12.876C4.65592 12.876 4.65789 12.8779 4.65928 12.892C4.66059 12.9053 4.6632 12.9083 4.67441 12.9096C4.68489 12.9108 4.68832 12.9142 4.68953 12.9244C4.69082 12.9354 4.69393 12.938 4.70747 12.9392C4.72187 12.9406 4.72385 12.9425 4.72385 12.9553C4.72385 12.9681 4.7256 12.9698 4.73897 12.9698C4.75288 12.9698 4.75408 12.9711 4.75408 12.987C4.75408 13.0029 4.75533 13.0043 4.76887 13.0043C4.78124 13.0043 4.78391 13.0065 4.78524 13.0179C4.78657 13.0292 4.78957 13.0317 4.80321 13.033C4.81762 13.0344 4.81959 13.0363 4.81959 13.049C4.81959 13.0619 4.82134 13.0635 4.83471 13.0635C4.84863 13.0635 4.84982 13.0649 4.84982 13.0808C4.84982 13.0966 4.85107 13.0981 4.86461 13.0981C4.87699 13.0981 4.87965 13.1003 4.88099 13.1117C4.88231 13.123 4.88531 13.1255 4.89896 13.1268C4.91336 13.1281 4.91533 13.1301 4.91533 13.1428C4.91533 13.1556 4.91709 13.1573 4.93045 13.1573C4.94437 13.1573 4.94557 13.1587 4.94557 13.1746C4.94557 13.1904 4.94682 13.1919 4.96035 13.1919C4.97273 13.1919 4.97539 13.1941 4.97673 13.2054C4.97805 13.2167 4.98105 13.2193 4.9947 13.2205C5.0091 13.2219 5.01107 13.2238 5.01107 13.2366C5.01107 13.2494 5.01283 13.2511 5.02619 13.2511C5.04011 13.2511 5.04131 13.2525 5.04131 13.2684C5.04131 13.2842 5.04256 13.2856 5.05609 13.2856C5.06847 13.2856 5.07113 13.2878 5.07247 13.2992C5.0738 13.3105 5.07679 13.313 5.09044 13.3143C5.10484 13.3157 5.10682 13.3176 5.10682 13.3304C5.10682 13.3432 5.10857 13.3448 5.12193 13.3448C5.13585 13.3448 5.13705 13.3462 5.13705 13.3621C5.13705 13.3779 5.1383 13.3794 5.15183 13.3794C5.16421 13.3794 5.16688 13.3816 5.16821 13.393C5.16954 13.4043 5.17254 13.4068 5.18618 13.4081C5.20058 13.4094 5.20256 13.4114 5.20256 13.4241C5.20256 13.4369 5.20431 13.4386 5.21768 13.4386C5.23159 13.4386 5.23279 13.44 5.23279 13.4559C5.23279 13.4717 5.23404 13.4732 5.24758 13.4732C5.25995 13.4732 5.26262 13.4754 5.26395 13.4867C5.26528 13.498 5.26828 13.5006 5.28192 13.5019C5.29632 13.5032 5.2983 13.5051 5.2983 13.5179C5.2983 13.5307 5.30005 13.5324 5.31342 13.5324C5.32734 13.5324 5.32853 13.5338 5.32853 13.5497C5.32853 13.5655 5.32978 13.5669 5.34332 13.5669C5.35569 13.5669 5.35836 13.5691 5.3597 13.5805C5.36102 13.5918 5.36402 13.5943 5.37767 13.5956C5.39207 13.597 5.39404 13.5989 5.39404 13.6117C5.39404 13.6245 5.3958 13.6262 5.40916 13.6262C5.42308 13.6262 5.42428 13.6275 5.42428 13.6434C5.42428 13.6592 5.42553 13.6607 5.43906 13.6607C5.45144 13.6607 5.4541 13.6629 5.45544 13.6743C5.45676 13.6856 5.45976 13.6881 5.47341 13.6894C5.48781 13.6908 5.48978 13.6927 5.48978 13.7054C5.48978 13.7182 5.49157 13.7199 5.50458 13.7199C5.51759 13.7199 5.51957 13.7219 5.52096 13.736C5.52227 13.7492 5.52488 13.7523 5.53609 13.7535C5.54656 13.7547 5.54999 13.7581 5.5512 13.7683C5.5525 13.7793 5.5556 13.7819 5.56915 13.7832C5.58355 13.7845 5.58553 13.7865 5.58553 13.7992C5.58553 13.8119 5.58731 13.8137 5.60033 13.8137C5.61334 13.8137 5.61531 13.8156 5.6167 13.8297C5.61801 13.843 5.62062 13.846 5.63183 13.8473C5.64231 13.8485 5.64574 13.8519 5.64695 13.8621C5.64824 13.8731 5.65135 13.8757 5.66489 13.8769C5.67929 13.8783 5.68127 13.8802 5.68127 13.893C5.68127 13.9057 5.68305 13.9075 5.69607 13.9075C5.70908 13.9075 5.71105 13.9094 5.71244 13.9235C5.71375 13.9368 5.71636 13.9398 5.72757 13.9411C5.73805 13.9423 5.74148 13.9456 5.74269 13.9559C5.74398 13.9669 5.74709 13.9694 5.76063 13.9707C5.77503 13.9721 5.77701 13.974 5.77701 13.9867C5.77701 13.9995 5.77879 14.0012 5.79181 14.0012C5.80482 14.0012 5.8068 14.0032 5.80819 14.0173C5.80949 14.0305 5.81211 14.0336 5.82331 14.0348C5.83379 14.036 5.83722 14.0394 5.83843 14.0497C5.83973 14.0606 5.84283 14.0632 5.85637 14.0645C5.87078 14.0658 5.87275 14.0678 5.87275 14.0805C5.87275 14.0933 5.87454 14.095 5.88755 14.095C5.90056 14.095 5.90254 14.0969 5.90393 14.111C5.90523 14.1243 5.90785 14.1273 5.91905 14.1286C5.92953 14.1298 5.93296 14.1332 5.93417 14.1434C5.93547 14.1544 5.93857 14.157 5.95212 14.1582C5.96652 14.1596 5.96849 14.1615 5.96849 14.1743C5.96849 14.187 5.97028 14.1888 5.98329 14.1888C5.9963 14.1888 5.99828 14.1907 5.99967 14.2048C6.00097 14.2181 6.00359 14.2211 6.0148 14.2224C6.02527 14.2236 6.0287 14.2269 6.02991 14.2372C6.03121 14.2482 6.03431 14.2507 6.04786 14.252C6.06226 14.2534 6.06423 14.2553 6.06423 14.268C6.06423 14.2808 6.06602 14.2825 6.07903 14.2825C6.09205 14.2825 6.09402 14.2845 6.09541 14.2986C6.09672 14.3118 6.09933 14.3149 6.11054 14.3162C6.12101 14.3173 6.12445 14.3207 6.12566 14.331C6.12695 14.3419 6.13005 14.3445 6.1436 14.3458C6.158 14.3471 6.15998 14.3491 6.15998 14.3618C6.15998 14.3746 6.16176 14.3763 6.17478 14.3763C6.18779 14.3763 6.18976 14.3782 6.19115 14.3924C6.19246 14.4056 6.19507 14.4087 6.20628 14.4099C6.21676 14.4111 6.22019 14.4145 6.2214 14.4247C6.22269 14.4357 6.2258 14.4383 6.23934 14.4395C6.25374 14.4409 6.25572 14.4428 6.25572 14.4556C6.25572 14.4683 6.2575 14.4701 6.27052 14.4701C6.28353 14.4701 6.2855 14.472 6.28689 14.4861C6.2882 14.4994 6.29081 14.5024 6.30202 14.5037C6.3125 14.5049 6.31593 14.5082 6.31714 14.5185C6.31843 14.5295 6.32154 14.532 6.33508 14.5333C6.34948 14.5347 6.35146 14.5366 6.35146 14.5494C6.35146 14.5621 6.35324 14.5638 6.36626 14.5638C6.37927 14.5638 6.38125 14.5658 6.38264 14.5799C6.38394 14.5932 6.38656 14.5962 6.39776 14.5975C6.40824 14.5986 6.41167 14.602 6.41288 14.6123C6.41418 14.6232 6.41728 14.6258 6.43082 14.6271C6.44523 14.6284 6.4472 14.6304 6.4472 14.6431C6.4472 14.6559 6.44899 14.6576 6.462 14.6576C6.47501 14.6576 6.47699 14.6596 6.47838 14.6737C6.47968 14.6869 6.4823 14.69 6.49351 14.6912C6.50398 14.6924 6.50741 14.6958 6.50862 14.706C6.50992 14.717 6.51302 14.7196 6.52657 14.7209C6.54097 14.7222 6.54294 14.7241 6.54294 14.7369C6.54294 14.7496 6.54473 14.7514 6.55774 14.7514C6.57075 14.7514 6.57273 14.7533 6.57412 14.7674C6.57543 14.7807 6.57804 14.7837 6.58925 14.785C6.59972 14.7862 6.60316 14.7895 6.60436 14.7998C6.60566 14.8108 6.60876 14.8133 6.62231 14.8146C6.63671 14.816 6.63869 14.8179 6.63869 14.8307C6.63869 14.8434 6.64047 14.8452 6.65349 14.8452C6.6665 14.8452 6.66847 14.8471 6.66986 14.8612C6.67117 14.8745 6.67378 14.8775 6.68499 14.8788C6.69547 14.88 6.6989 14.8833 6.70011 14.8936C6.7014 14.9046 6.70451 14.9071 6.71805 14.9084C6.73245 14.9098 6.73443 14.9117 6.73443 14.9244C6.73443 14.9372 6.73621 14.9389 6.74923 14.9389C6.76224 14.9389 6.76421 14.9409 6.7656 14.955C6.76692 14.9683 6.76949 14.9713 6.78104 14.9726C6.79264 14.9739 6.7949 14.9765 6.7949 14.9886C6.7949 15.0019 6.79638 15.0031 6.81253 15.0031C6.82877 15.0031 6.83017 15.0043 6.83017 15.0179C6.83017 15.031 6.83188 15.0327 6.84497 15.0327C6.85798 15.0327 6.85995 15.0346 6.86135 15.0487C6.86266 15.0621 6.86524 15.065 6.87678 15.0663C6.88839 15.0676 6.89064 15.0703 6.89064 15.0824C6.89064 15.0956 6.89212 15.0969 6.90827 15.0969C6.92451 15.0969 6.92591 15.098 6.92591 15.1117C6.92591 15.1247 6.92762 15.1265 6.94071 15.1265C6.95372 15.1265 6.9557 15.1284 6.95709 15.1425C6.9584 15.1559 6.96098 15.1588 6.97252 15.1601C6.98413 15.1614 6.98638 15.164 6.98638 15.1761C6.98638 15.1894 6.98787 15.1906 7.00402 15.1906C7.02025 15.1906 7.02165 15.1918 7.02165 15.2054C7.02165 15.2185 7.02337 15.2202 7.03645 15.2202C7.04946 15.2202 7.05144 15.2222 7.05283 15.2363C7.05414 15.2496 7.05672 15.2526 7.06826 15.2539C7.07987 15.2552 7.08212 15.2578 7.08212 15.2699C7.08212 15.2832 7.08361 15.2844 7.09976 15.2844C7.11599 15.2844 7.11739 15.2856 7.11739 15.2992C7.11739 15.3123 7.11911 15.314 7.13219 15.314C7.14521 15.314 7.14718 15.3159 7.14857 15.33C7.14989 15.3434 7.15246 15.3463 7.16401 15.3476C7.17561 15.3489 7.17786 15.3516 7.17786 15.3637C7.17786 15.3769 7.17935 15.3782 7.1955 15.3782C7.21174 15.3782 7.21314 15.3793 7.21314 15.393C7.21314 15.4061 7.21485 15.4078 7.22794 15.4078C7.24095 15.4078 7.24292 15.4097 7.24431 15.4238C7.24563 15.4372 7.2482 15.4401 7.25975 15.4414C7.27135 15.4427 7.2736 15.4453 7.2736 15.4574C7.2736 15.4707 7.27509 15.4719 7.29124 15.4719C7.30748 15.4719 7.30888 15.4731 7.30888 15.4867C7.30888 15.4998 7.31059 15.5015 7.32368 15.5015C7.33669 15.5015 7.33866 15.5035 7.34005 15.5176C7.34137 15.5309 7.34394 15.5339 7.35549 15.5352C7.36709 15.5365 7.36935 15.5391 7.36935 15.5512C7.36935 15.5645 7.37083 15.5657 7.38698 15.5657C7.40322 15.5657 7.40462 15.5669 7.40462 15.5805C7.40462 15.5936 7.40633 15.5953 7.41942 15.5953C7.43243 15.5953 7.43441 15.5972 7.4358 15.6114C7.43711 15.6247 7.43969 15.6277 7.45123 15.6289C7.46284 15.6303 7.46509 15.6329 7.46509 15.645C7.46509 15.6582 7.46658 15.6595 7.48273 15.6595C7.49896 15.6595 7.50036 15.6606 7.50036 15.6743C7.50036 15.6874 7.50208 15.6891 7.51516 15.6891C7.52817 15.6891 7.53015 15.691 7.53154 15.7051C7.53292 15.7192 7.53509 15.7213 7.54949 15.7227C7.56389 15.7241 7.56587 15.726 7.56587 15.7387C7.56587 15.7516 7.56762 15.7532 7.58099 15.7532C7.59443 15.7532 7.5961 15.7549 7.5961 15.768C7.5961 15.7812 7.59778 15.7828 7.61122 15.7828C7.62458 15.7828 7.62634 15.7845 7.62634 15.7973C7.62634 15.8101 7.62831 15.812 7.64271 15.8134C7.65712 15.8147 7.65928 15.8169 7.66067 15.831L7.66225 15.847H7.69216C7.72204 15.847 7.72208 15.847 7.72208 15.8618C7.72208 15.8754 7.72348 15.8766 7.73972 15.8766C7.75582 15.8766 7.75735 15.8779 7.75735 15.8909C7.75735 15.9048 7.75841 15.9054 7.78729 15.9087C7.81493 15.9118 7.81736 15.9131 7.81879 15.9252C7.82033 15.9382 7.82066 15.9383 7.86695 15.9397L7.91356 15.9411V15.9558V15.9704H7.96143H8.00931V15.9852V16H8.17055H8.3318V15.9852V15.9704H8.39227H8.45274V15.9558C8.45274 15.9412 8.45278 15.9412 8.48675 15.9398C8.51939 15.9384 8.52083 15.9378 8.52232 15.9252C8.52375 15.9131 8.52618 15.9118 8.55381 15.9087C8.5827 15.9054 8.58376 15.9048 8.58376 15.8909V15.8766H8.61651H8.64926V15.8618C8.64926 15.8487 8.65098 15.847 8.66406 15.847C8.67707 15.847 8.67905 15.8451 8.68044 15.831C8.68183 15.8169 8.68399 15.8147 8.69839 15.8134C8.7128 15.812 8.71477 15.8101 8.71477 15.7973C8.71477 15.7845 8.71652 15.7828 8.72989 15.7828C8.74333 15.7828 8.74501 15.7812 8.74501 15.768C8.74501 15.7549 8.74668 15.7532 8.76012 15.7532C8.77349 15.7532 8.77524 15.7516 8.77524 15.7387C8.77524 15.726 8.77722 15.7241 8.79162 15.7227C8.80602 15.7213 8.80818 15.7192 8.80957 15.7051C8.81096 15.691 8.81294 15.6891 8.82595 15.6891C8.83903 15.6891 8.84075 15.6874 8.84075 15.6743C8.84075 15.6611 8.84243 15.6595 8.85586 15.6595H8.87098V15.6274V15.5953H8.88569C8.90009 15.5953 8.90049 15.5946 8.90392 15.5632C8.90734 15.532 8.9078 15.5312 8.92196 15.5312H8.93649V15.4867V15.4423H8.95161C8.96652 15.4423 8.96672 15.442 8.96672 15.4159C8.96672 15.4013 8.96816 15.3791 8.96993 15.3665C8.97264 15.3471 8.97484 15.3436 8.98426 15.3436C8.99507 15.3436 8.99549 15.3416 8.99866 15.2733C9.00045 15.2346 9.00045 15.1713 8.99866 15.1326C8.99549 15.0644 8.99507 15.0623 8.98426 15.0623C8.97484 15.0623 8.97264 15.0588 8.96993 15.0394C8.96816 15.0268 8.96672 14.9991 8.96672 14.9777V14.9389H8.95161C8.93674 14.9389 8.93649 14.9385 8.93643 14.913C8.9364 14.8988 8.93497 14.8788 8.93325 14.8686C8.93069 14.8534 8.92803 14.8501 8.9185 14.8501C8.90869 14.8501 8.90662 14.8472 8.9053 14.8316C8.90395 14.8156 8.90188 14.8129 8.89009 14.8115C8.87742 14.8101 8.87621 14.8079 8.87306 14.7807C8.86981 14.7525 8.86914 14.7514 8.85521 14.7514C8.84204 14.7514 8.84075 14.7498 8.84075 14.7341C8.84075 14.7183 8.83948 14.7168 8.82612 14.7168C8.812 14.7168 8.81138 14.7158 8.80799 14.6872C8.8046 14.6586 8.80398 14.6576 8.78986 14.6576C8.77697 14.6576 8.77524 14.6559 8.77524 14.6428C8.77524 14.6297 8.77356 14.628 8.76012 14.628C8.74668 14.628 8.74501 14.6264 8.74501 14.6132C8.74501 14.6 8.74333 14.5984 8.72989 14.5984C8.71597 14.5984 8.71477 14.597 8.71477 14.5811C8.71477 14.5647 8.71393 14.5638 8.69713 14.5638C8.6809 14.5638 8.6795 14.5627 8.6795 14.549C8.6795 14.5359 8.67782 14.5342 8.66438 14.5342C8.65094 14.5342 8.64926 14.5326 8.64926 14.5194C8.64926 14.5063 8.64758 14.5046 8.63415 14.5046C8.62023 14.5046 8.61903 14.5033 8.61903 14.4874C8.61903 14.4709 8.61819 14.4701 8.60139 14.4701C8.58516 14.4701 8.58376 14.4689 8.58376 14.4553C8.58376 14.4421 8.58208 14.4405 8.56864 14.4405C8.5552 14.4405 8.55352 14.4388 8.55352 14.4257C8.55352 14.4125 8.55184 14.4109 8.5384 14.4109C8.52449 14.4109 8.52329 14.4095 8.52329 14.3936C8.52329 14.3771 8.52245 14.3763 8.50565 14.3763C8.48942 14.3763 8.48801 14.3751 8.48801 14.3615C8.48801 14.3483 8.48634 14.3467 8.4729 14.3467C8.45946 14.3467 8.45778 14.3451 8.45778 14.3319C8.45778 14.3187 8.4561 14.3171 8.44266 14.3171C8.42874 14.3171 8.42755 14.3157 8.42755 14.2998C8.42755 14.2834 8.4267 14.2825 8.40991 14.2825C8.39367 14.2825 8.39227 14.2814 8.39227 14.2677C8.39227 14.2546 8.39059 14.2529 8.37716 14.2529C8.36372 14.2529 8.36204 14.2513 8.36204 14.2381C8.36204 14.225 8.36036 14.2233 8.34692 14.2233C8.333 14.2233 8.3318 14.2219 8.3318 14.206C8.3318 14.1896 8.33096 14.1888 8.31417 14.1888C8.29793 14.1888 8.29653 14.1876 8.29653 14.174C8.29653 14.1608 8.29485 14.1592 8.28141 14.1592C8.26797 14.1592 8.2663 14.1575 8.2663 14.1444C8.2663 14.1312 8.26462 14.1295 8.25118 14.1295C8.23726 14.1295 8.23606 14.1282 8.23606 14.1123C8.23606 14.0958 8.23522 14.095 8.21842 14.095C8.20219 14.095 8.20079 14.0938 8.20079 14.0802C8.20079 14.067 8.19911 14.0654 8.18567 14.0654C8.17223 14.0654 8.17055 14.0637 8.17055 14.0506C8.17055 14.0374 8.16888 14.0358 8.15544 14.0358C8.14152 14.0358 8.14032 14.0344 8.14032 14.0185C8.14032 14.0021 8.13948 14.0012 8.12268 14.0012C8.10645 14.0012 8.10505 14.0001 8.10505 13.9864C8.10505 13.9733 8.10337 13.9716 8.08993 13.9716C8.07649 13.9716 8.07481 13.97 8.07481 13.9568C8.07481 13.9437 8.07313 13.942 8.0597 13.942C8.04578 13.942 8.04458 13.9406 8.04458 13.9247C8.04458 13.9083 8.04374 13.9075 8.02694 13.9075C8.01071 13.9075 8.00931 13.9063 8.00931 13.8927C8.00931 13.8795 8.00763 13.8779 7.99419 13.8779C7.98075 13.8779 7.97907 13.8762 7.97907 13.863C7.97907 13.8499 7.97739 13.8482 7.96395 13.8482C7.95004 13.8482 7.94884 13.8469 7.94884 13.831C7.94884 13.8145 7.94799 13.8137 7.9312 13.8137C7.91496 13.8137 7.91356 13.8125 7.91356 13.7989C7.91356 13.7857 7.91189 13.7841 7.89845 13.7841C7.88501 13.7841 7.88333 13.7824 7.88333 13.7693C7.88333 13.7561 7.88165 13.7545 7.86821 13.7545C7.85429 13.7545 7.85309 13.7531 7.85309 13.7372C7.85309 13.7207 7.85225 13.7199 7.83546 13.7199C7.81922 13.7199 7.81782 13.7188 7.81782 13.7051C7.81782 13.692 7.81614 13.6903 7.8027 13.6903C7.78927 13.6903 7.78759 13.6887 7.78759 13.6755C7.78759 13.6623 7.78591 13.6607 7.77247 13.6607C7.75855 13.6607 7.75735 13.6593 7.75735 13.6434C7.75735 13.627 7.75651 13.6262 7.73972 13.6262C7.72348 13.6262 7.72208 13.625 7.72208 13.6114C7.72208 13.5982 7.7204 13.5965 7.70696 13.5965C7.69352 13.5965 7.69185 13.5949 7.69185 13.5817C7.69185 13.5686 7.69017 13.5669 7.67673 13.5669C7.66281 13.5669 7.66161 13.5656 7.66161 13.5497C7.66161 13.5332 7.66077 13.5324 7.64397 13.5324C7.62774 13.5324 7.62634 13.5312 7.62634 13.5176C7.62634 13.5044 7.62466 13.5028 7.61122 13.5028C7.59778 13.5028 7.5961 13.5011 7.5961 13.488C7.5961 13.4748 7.59443 13.4732 7.58099 13.4732C7.56707 13.4732 7.56587 13.4718 7.56587 13.4559C7.56587 13.4394 7.56503 13.4386 7.54823 13.4386C7.532 13.4386 7.5306 13.4374 7.5306 13.4238C7.5306 13.4106 7.52892 13.409 7.51548 13.409C7.50212 13.409 7.50036 13.4073 7.50036 13.3945C7.50036 13.3818 7.49839 13.3798 7.48398 13.3785C7.46958 13.3771 7.46742 13.375 7.46603 13.3609C7.46464 13.3468 7.46266 13.3448 7.44965 13.3448C7.43657 13.3448 7.43485 13.3431 7.43485 13.33C7.43485 13.3169 7.43318 13.3152 7.41974 13.3152C7.40637 13.3152 7.40462 13.3136 7.40462 13.3007C7.40462 13.288 7.40264 13.2861 7.38824 13.2847C7.37384 13.2833 7.37167 13.2812 7.37029 13.2671C7.3689 13.253 7.36692 13.2511 7.35391 13.2511C7.34083 13.2511 7.33911 13.2494 7.33911 13.2363C7.33911 13.2231 7.33743 13.2215 7.324 13.2215C7.31063 13.2215 7.30888 13.2198 7.30888 13.207C7.30888 13.1942 7.3069 13.1923 7.2925 13.1909C7.2781 13.1896 7.27593 13.1875 7.27455 13.1733C7.27316 13.1592 7.27118 13.1573 7.25817 13.1573C7.24508 13.1573 7.24337 13.1556 7.24337 13.1425C7.24337 13.1293 7.24169 13.1277 7.22825 13.1277C7.21489 13.1277 7.21314 13.126 7.21314 13.1132C7.21314 13.1005 7.21116 13.0985 7.19676 13.0972C7.18236 13.0958 7.18019 13.0937 7.17881 13.0796C7.17741 13.0655 7.17544 13.0635 7.16243 13.0635C7.14934 13.0635 7.14763 13.0618 7.14763 13.0487C7.14763 13.0356 7.14595 13.0339 7.13251 13.0339C7.11915 13.0339 7.11739 13.0323 7.11739 13.0194C7.11739 13.0067 7.11542 13.0048 7.10102 13.0034C7.08662 13.002 7.08445 12.9999 7.08306 12.9858C7.08167 12.9717 7.0797 12.9698 7.06669 12.9698C7.0536 12.9698 7.05189 12.9681 7.05189 12.955C7.05189 12.9418 7.05021 12.9402 7.03677 12.9402C7.02285 12.9402 7.02165 12.9388 7.02165 12.9229C7.02165 12.9064 7.02081 12.9056 7.00402 12.9056C6.98778 12.9056 6.98638 12.9044 6.98638 12.8908C6.98638 12.8776 6.9847 12.876 6.97126 12.876C6.95782 12.876 6.95615 12.8744 6.95615 12.8612C6.95615 12.848 6.95447 12.8464 6.94103 12.8464C6.92711 12.8464 6.92591 12.845 6.92591 12.8291C6.92591 12.8127 6.92507 12.8118 6.90827 12.8118C6.89204 12.8118 6.89064 12.8107 6.89064 12.797C6.89064 12.7839 6.88896 12.7822 6.87552 12.7822C6.86208 12.7822 6.8604 12.7806 6.8604 12.7674C6.8604 12.7543 6.85873 12.7526 6.84529 12.7526C6.83137 12.7526 6.83017 12.7512 6.83017 12.7353C6.83017 12.7189 6.82933 12.7181 6.81253 12.7181C6.7963 12.7181 6.7949 12.7169 6.7949 12.7033C6.7949 12.6901 6.79322 12.6885 6.77978 12.6885C6.76634 12.6885 6.76466 12.6868 6.76466 12.6737C6.76466 12.6605 6.76298 12.6589 6.74954 12.6589C6.73563 12.6589 6.73443 12.6575 6.73443 12.6416C6.73443 12.6251 6.73359 12.6243 6.71679 12.6243C6.70055 12.6243 6.69915 12.6231 6.69915 12.6095C6.69915 12.5963 6.69748 12.5947 6.68404 12.5947C6.6706 12.5947 6.66892 12.5931 6.66892 12.5799C6.66892 12.5667 6.66724 12.5651 6.6538 12.5651C6.63988 12.5651 6.63869 12.5637 6.63869 12.5478C6.63869 12.5314 6.63784 12.5305 6.62105 12.5305C6.60481 12.5305 6.60341 12.5294 6.60341 12.5157C6.60341 12.5026 6.60173 12.5009 6.58829 12.5009C6.57486 12.5009 6.57318 12.4993 6.57318 12.4861C6.57318 12.473 6.5715 12.4713 6.55806 12.4713C6.54414 12.4713 6.54294 12.4699 6.54294 12.454C6.54294 12.4376 6.5421 12.4368 6.52531 12.4368C6.50907 12.4368 6.50767 12.4356 6.50767 12.422C6.50767 12.4088 6.50599 12.4072 6.49255 12.4072C6.47911 12.4072 6.47744 12.4055 6.47744 12.3924C6.47744 12.3792 6.47576 12.3775 6.46232 12.3775C6.4484 12.3775 6.4472 12.3762 6.4472 12.3603C6.4472 12.3438 6.44636 12.343 6.42957 12.343C6.41333 12.343 6.41193 12.3418 6.41193 12.3282C6.41193 12.315 6.41025 12.3134 6.39681 12.3134C6.38337 12.3134 6.38169 12.3117 6.38169 12.2986C6.38169 12.2854 6.38002 12.2838 6.36658 12.2838C6.35266 12.2838 6.35146 12.2824 6.35146 12.2665C6.35146 12.2501 6.35062 12.2492 6.33382 12.2492C6.31759 12.2492 6.31619 12.2481 6.31619 12.2344C6.31619 12.2213 6.31451 12.2196 6.30107 12.2196C6.28763 12.2196 6.28595 12.218 6.28595 12.2048C6.28595 12.1916 6.28427 12.19 6.27084 12.19C6.25692 12.19 6.25572 12.1886 6.25572 12.1727C6.25572 12.1563 6.25488 12.1555 6.23808 12.1555C6.22185 12.1555 6.22045 12.1543 6.22045 12.1407C6.22045 12.1275 6.21877 12.1258 6.20533 12.1258C6.19189 12.1258 6.19021 12.1242 6.19021 12.111C6.19021 12.0979 6.18853 12.0962 6.17509 12.0962C6.16118 12.0962 6.15998 12.0949 6.15998 12.079C6.15998 12.0625 6.15913 12.0617 6.14234 12.0617C6.1261 12.0617 6.1247 12.0605 6.1247 12.0469C6.1247 12.0337 6.12302 12.0321 6.10959 12.0321C6.09615 12.0321 6.09447 12.0304 6.09447 12.0173C6.09447 12.0041 6.09279 12.0025 6.07935 12.0025C6.06543 12.0025 6.06423 12.0011 6.06423 11.9852C6.06423 11.9687 6.06339 11.9679 6.0466 11.9679C6.03036 11.9679 6.02896 11.9667 6.02896 11.9531C6.02896 11.94 6.02728 11.9383 6.01384 11.9383C6.00041 11.9383 5.99873 11.9367 5.99873 11.9235C5.99873 11.9103 5.99705 11.9087 5.98361 11.9087C5.96969 11.9087 5.96849 11.9073 5.96849 11.8914C5.96849 11.875 5.96765 11.8742 5.95086 11.8742C5.93462 11.8742 5.93322 11.873 5.93322 11.8593C5.93322 11.8462 5.93154 11.8445 5.9181 11.8445C5.90466 11.8445 5.90299 11.8429 5.90299 11.8297C5.90299 11.8166 5.90131 11.8149 5.88787 11.8149C5.87395 11.8149 5.87275 11.8136 5.87275 11.7977C5.87275 11.7812 5.87191 11.7804 5.85511 11.7804C5.83888 11.7804 5.83748 11.7792 5.83748 11.7656C5.83748 11.7524 5.8358 11.7508 5.82236 11.7508C5.80892 11.7508 5.80724 11.7491 5.80724 11.736C5.80724 11.7228 5.80557 11.7212 5.79213 11.7212C5.77821 11.7212 5.77701 11.7198 5.77701 11.7039C5.77701 11.6874 5.77617 11.6866 5.75937 11.6866C5.74314 11.6866 5.74174 11.6854 5.74174 11.6718C5.74174 11.6586 5.74006 11.657 5.72662 11.657C5.71318 11.657 5.7115 11.6554 5.7115 11.6422C5.7115 11.629 5.70982 11.6274 5.69638 11.6274C5.68247 11.6274 5.68127 11.626 5.68127 11.6101C5.68127 11.5937 5.68043 11.5928 5.66363 11.5928C5.6474 11.5928 5.64599 11.5917 5.64599 11.578C5.64599 11.5649 5.64432 11.5632 5.63088 11.5632C5.61744 11.5632 5.61576 11.5616 5.61576 11.5484C5.61576 11.5353 5.61408 11.5336 5.60064 11.5336C5.58672 11.5336 5.58553 11.5322 5.58553 11.5163C5.58553 11.4999 5.58468 11.4991 5.56789 11.4991C5.55165 11.4991 5.55025 11.4979 5.55025 11.4843C5.55025 11.4711 5.54857 11.4695 5.53514 11.4695C5.5217 11.4695 5.52002 11.4678 5.52002 11.4547C5.52002 11.4415 5.51834 11.4399 5.5049 11.4399C5.49098 11.4399 5.48978 11.4385 5.48978 11.4226C5.48978 11.4061 5.48894 11.4053 5.47215 11.4053C5.45591 11.4053 5.45451 11.4041 5.45451 11.3905C5.45451 11.3773 5.45283 11.3757 5.43939 11.3757C5.42595 11.3757 5.42428 11.3741 5.42428 11.3609C5.42428 11.3477 5.4226 11.3461 5.40916 11.3461C5.39524 11.3461 5.39404 11.3447 5.39404 11.3288C5.39404 11.3124 5.3932 11.3115 5.37641 11.3115C5.36017 11.3115 5.35877 11.3104 5.35877 11.2967C5.35877 11.2836 5.35709 11.2819 5.34365 11.2819C5.33021 11.2819 5.32853 11.2803 5.32853 11.2671C5.32853 11.254 5.32686 11.2523 5.31342 11.2523C5.2995 11.2523 5.2983 11.2509 5.2983 11.235C5.2983 11.2186 5.29746 11.2178 5.28066 11.2178C5.26443 11.2178 5.26303 11.2166 5.26303 11.203C5.26303 11.1898 5.26135 11.1882 5.24791 11.1882C5.23447 11.1882 5.23279 11.1865 5.23279 11.1733C5.23279 11.1602 5.23111 11.1585 5.21768 11.1585C5.20376 11.1585 5.20256 11.1572 5.20256 11.1413C5.20256 11.1248 5.20172 11.124 5.18492 11.124C5.16869 11.124 5.16728 11.1228 5.16728 11.1092C5.16728 11.096 5.16561 11.0944 5.15217 11.0944C5.13873 11.0944 5.13705 11.0927 5.13705 11.0796C5.13705 11.0664 5.13537 11.0648 5.12193 11.0648C5.10802 11.0648 5.10682 11.0634 5.10682 11.0475C5.10682 11.0311 5.10597 11.0302 5.08918 11.0302C5.07294 11.0302 5.07154 11.0291 5.07154 11.0154C5.07154 11.0023 5.06986 11.0006 5.05643 11.0006C5.04299 11.0006 5.04131 10.999 5.04131 10.9858C5.04131 10.9726 5.03963 10.971 5.02619 10.971C5.01227 10.971 5.01107 10.9696 5.01107 10.9537C5.01107 10.9373 5.01023 10.9365 4.99344 10.9365C4.9772 10.9365 4.9758 10.9353 4.9758 10.9217C4.9758 10.9085 4.97412 10.9068 4.96068 10.9068C4.94725 10.9068 4.94557 10.9052 4.94557 10.892C4.94557 10.8789 4.94389 10.8772 4.93045 10.8772C4.91653 10.8772 4.91533 10.8759 4.91533 10.86C4.91533 10.8435 4.91449 10.8427 4.8977 10.8427C4.88146 10.8427 4.88006 10.8415 4.88006 10.8279C4.88006 10.8147 4.87838 10.8131 4.86494 10.8131C4.8515 10.8131 4.84982 10.8114 4.84982 10.7983C4.84982 10.7851 4.84815 10.7835 4.83471 10.7835C4.82079 10.7835 4.81959 10.7821 4.81959 10.7662C4.81959 10.7497 4.81875 10.7489 4.80195 10.7489C4.78572 10.7489 4.78432 10.7477 4.78432 10.7341C4.78432 10.721 4.78264 10.7193 4.7692 10.7193C4.75576 10.7193 4.75408 10.7177 4.75408 10.7045C4.75408 10.6913 4.75241 10.6897 4.73897 10.6897C4.72505 10.6897 4.72385 10.6883 4.72385 10.6724C4.72385 10.656 4.72301 10.6552 4.70621 10.6552C4.68998 10.6552 4.68858 10.654 4.68858 10.6403C4.68858 10.6272 4.6869 10.6255 4.67346 10.6255C4.66002 10.6255 4.65834 10.6239 4.65834 10.6107C4.65834 10.5976 4.65666 10.5959 4.64322 10.5959C4.62931 10.5959 4.62811 10.5946 4.62811 10.5787C4.62811 10.5622 4.62727 10.5614 4.61047 10.5614C4.59423 10.5614 4.59283 10.5602 4.59283 10.5466C4.59283 10.5334 4.59116 10.5318 4.57772 10.5318C4.56428 10.5318 4.5626 10.5301 4.5626 10.517C4.5626 10.5038 4.56092 10.5022 4.54748 10.5022C4.53356 10.5022 4.53237 10.5008 4.53237 10.4849C4.53237 10.4684 4.53152 10.4676 4.51473 10.4676C4.49849 10.4676 4.49709 10.4664 4.49709 10.4528C4.49709 10.4396 4.49541 10.438 4.48198 10.438C4.46854 10.438 4.46686 10.4364 4.46686 10.4232C4.46686 10.41 4.46518 10.4084 4.45174 10.4084C4.43782 10.4084 4.43662 10.407 4.43662 10.3911C4.43662 10.3747 4.43578 10.3738 4.41899 10.3738C4.40275 10.3738 4.40135 10.3727 4.40135 10.359C4.40135 10.3459 4.39967 10.3442 4.38623 10.3442C4.37279 10.3442 4.37112 10.3426 4.37112 10.3294C4.37112 10.3163 4.36944 10.3146 4.356 10.3146C4.34208 10.3146 4.34088 10.3132 4.34088 10.2973C4.34088 10.2809 4.34004 10.2801 4.32325 10.2801C4.30701 10.2801 4.30561 10.2789 4.30561 10.2653C4.30561 10.2521 4.30393 10.2505 4.29049 10.2505C4.27705 10.2505 4.27537 10.2488 4.27537 10.2357C4.27537 10.2225 4.2737 10.2209 4.26026 10.2209C4.24634 10.2209 4.24514 10.2195 4.24514 10.2036C4.24514 10.1871 4.2443 10.1863 4.2275 10.1863C4.21127 10.1863 4.20987 10.1851 4.20987 10.1715C4.20987 10.1583 4.20819 10.1567 4.19475 10.1567C4.18131 10.1567 4.17963 10.155 4.17963 10.1419C4.17963 10.1287 4.17795 10.1271 4.16452 10.1271C4.1506 10.1271 4.1494 10.1257 4.1494 10.1098C4.1494 10.0934 4.14856 10.0925 4.13176 10.0925C4.11553 10.0925 4.11412 10.0914 4.11412 10.0777C4.11412 10.0646 4.11245 10.0629 4.09901 10.0629C4.08557 10.0629 4.08389 10.0613 4.08389 10.0481C4.08389 10.035 4.08221 10.0333 4.06877 10.0333C4.05486 10.0333 4.05366 10.0319 4.05366 10.016C4.05366 9.99959 4.05281 9.99877 4.03602 9.99877C4.01978 9.99877 4.01838 9.99759 4.01838 9.98396C4.01838 9.9708 4.01671 9.96915 4.00327 9.96915C3.98983 9.96915 3.98815 9.96751 3.98815 9.95435C3.98815 9.94119 3.98647 9.93954 3.97303 9.93954C3.95911 9.93954 3.95791 9.93817 3.95791 9.92227C3.95791 9.90582 3.95707 9.905 3.94028 9.905C3.92404 9.905 3.92264 9.90382 3.92264 9.89019C3.92264 9.87703 3.92096 9.87539 3.90752 9.87539C3.89409 9.87539 3.89241 9.87374 3.89241 9.86058C3.89241 9.84749 3.89069 9.84577 3.87761 9.84577C3.8646 9.84577 3.86262 9.84384 3.86123 9.82973C3.85984 9.81563 3.85768 9.81351 3.84328 9.81215C3.82887 9.81079 3.8269 9.80885 3.8269 9.79611C3.8269 9.78329 3.82515 9.78162 3.81178 9.78162C3.79834 9.78162 3.79667 9.77997 3.79667 9.76681C3.79667 9.75372 3.79495 9.752 3.78187 9.752C3.76885 9.752 3.76688 9.75007 3.76549 9.73596C3.7641 9.72186 3.76194 9.71974 3.74753 9.71838C3.73313 9.71702 3.73116 9.71508 3.73116 9.70234C3.73116 9.68952 3.7294 9.68785 3.71604 9.68785C3.7026 9.68785 3.70092 9.6862 3.70092 9.67304C3.70092 9.65995 3.69921 9.65824 3.68612 9.65824C3.67311 9.65824 3.67114 9.6563 3.66975 9.6422C3.66836 9.62809 3.66619 9.62597 3.65179 9.62461C3.63739 9.62325 3.63542 9.62132 3.63542 9.60857C3.63542 9.59576 3.63366 9.59408 3.6203 9.59408C3.60686 9.59408 3.60518 9.59243 3.60518 9.57927C3.60518 9.56618 3.60347 9.56447 3.59038 9.56447C3.57737 9.56447 3.5754 9.56253 3.57401 9.54843C3.57262 9.53432 3.57045 9.5322 3.55605 9.53084C3.54165 9.52948 3.53967 9.52755 3.53967 9.5148C3.53967 9.50199 3.53792 9.50031 3.52456 9.50031C3.51112 9.50031 3.50944 9.49866 3.50944 9.4855C3.50944 9.47241 3.50773 9.4707 3.49464 9.4707C3.48163 9.4707 3.47965 9.46876 3.47826 9.45466C3.47688 9.44055 3.47471 9.43843 3.46031 9.43707C3.44591 9.43571 3.44393 9.43378 3.44393 9.42103C3.44393 9.40822 3.44218 9.40654 3.42882 9.40654C3.41538 9.40654 3.4137 9.4049 3.4137 9.39173C3.4137 9.37864 3.41198 9.37693 3.3989 9.37693C3.38589 9.37693 3.38391 9.37499 3.38252 9.36089C3.38114 9.34678 3.37897 9.34466 3.36457 9.3433C3.35017 9.34194 3.34819 9.34001 3.34819 9.32726C3.34819 9.31445 3.34644 9.31277 3.33307 9.31277C3.31963 9.31277 3.31796 9.31113 3.31796 9.29796C3.31796 9.28488 3.31624 9.28316 3.30316 9.28316C3.29015 9.28316 3.28817 9.28122 3.28678 9.26712C3.28539 9.25301 3.28323 9.25089 3.26883 9.24953C3.25442 9.24817 3.25245 9.24624 3.25245 9.23349C3.25245 9.22068 3.2507 9.219 3.23733 9.219C3.22389 9.219 3.22221 9.21736 3.22221 9.2042C3.22221 9.19111 3.2205 9.18939 3.20741 9.18939C3.1944 9.18939 3.19243 9.18745 3.19104 9.17335C3.18965 9.15924 3.18749 9.15712 3.17308 9.15577C3.15868 9.1544 3.15671 9.15247 3.15671 9.13973C3.15671 9.12691 3.15495 9.12523 3.14159 9.12523C3.12815 9.12523 3.12647 9.12359 3.12647 9.11042C3.12647 9.09734 3.12476 9.09562 3.11167 9.09562C3.09866 9.09562 3.09669 9.09369 3.0953 9.07958C3.09391 9.06548 3.09174 9.06335 3.07734 9.062C3.06294 9.06063 3.06097 9.0587 3.06097 9.04596C3.06097 9.03314 3.05921 9.03146 3.04585 9.03146C3.03241 9.03146 3.03073 9.02982 3.03073 9.01666C3.03073 9.00357 3.02902 9.00185 3.01593 9.00185C3.00292 9.00185 3.00095 8.99992 2.99955 8.98581C2.99817 8.97171 2.996 8.96958 2.9816 8.96823C2.9672 8.96686 2.96522 8.96493 2.96522 8.95219C2.96522 8.93937 2.96347 8.93769 2.95011 8.93769C2.93667 8.93769 2.93499 8.93605 2.93499 8.92289C2.93499 8.9098 2.93328 8.90808 2.92019 8.90808C2.90718 8.90808 2.9052 8.90615 2.90381 8.89204C2.90243 8.87794 2.90026 8.87581 2.88586 8.87446C2.87146 8.8731 2.86948 8.87116 2.86948 8.85842C2.86948 8.8456 2.86773 8.84392 2.85436 8.84392C2.84093 8.84392 2.83925 8.84228 2.83925 8.82912C2.83925 8.81603 2.83753 8.81431 2.82445 8.81431C2.81144 8.81431 2.80946 8.81238 2.80807 8.79827C2.80668 8.78417 2.80452 8.78205 2.79012 8.78069C2.77571 8.77933 2.77374 8.77739 2.77374 8.76465C2.77374 8.75183 2.77199 8.75015 2.75862 8.75015C2.74518 8.75015 2.74351 8.74851 2.74351 8.73535C2.74351 8.72226 2.74179 8.72054 2.72871 8.72054C2.71569 8.72054 2.71372 8.71861 2.71233 8.7045C2.71094 8.6904 2.70878 8.68828 2.69437 8.68692C2.67997 8.68556 2.678 8.68362 2.678 8.67088C2.678 8.65806 2.67624 8.65638 2.66288 8.65638C2.64944 8.65638 2.64776 8.65474 2.64776 8.64158C2.64776 8.62849 2.64605 8.62677 2.63296 8.62677C2.61995 8.62677 2.61798 8.62484 2.61659 8.61073C2.6152 8.59663 2.61303 8.59451 2.59863 8.59315C2.58423 8.59179 2.58226 8.58985 2.58226 8.57711C2.58226 8.56429 2.5805 8.56262 2.56714 8.56262C2.5537 8.56262 2.55202 8.56097 2.55202 8.54781C2.55202 8.53472 2.55031 8.533 2.53722 8.533C2.52421 8.533 2.52224 8.53107 2.52085 8.51696C2.51946 8.50286 2.51729 8.50074 2.50289 8.49938C2.48849 8.49802 2.48651 8.49608 2.48651 8.48334C2.48651 8.47052 2.48476 8.46885 2.4714 8.46885C2.45796 8.46885 2.45628 8.4672 2.45628 8.45404C2.45628 8.44095 2.45457 8.43923 2.44148 8.43923C2.42847 8.43923 2.42649 8.4373 2.4251 8.42319C2.42372 8.40909 2.42155 8.40697 2.40715 8.40561C2.39275 8.40425 2.39077 8.40231 2.39077 8.38957C2.39077 8.37675 2.38902 8.37508 2.37566 8.37508C2.36222 8.37508 2.36054 8.37343 2.36054 8.36027C2.36054 8.34718 2.35882 8.34547 2.34574 8.34547C2.33273 8.34547 2.33075 8.34353 2.32936 8.32943C2.32798 8.31532 2.32581 8.3132 2.31141 8.31184C2.29701 8.31048 2.29503 8.30855 2.29503 8.2958C2.29503 8.28299 2.29328 8.28131 2.27991 8.28131C2.26647 8.28131 2.2648 8.27966 2.2648 8.2665C2.2648 8.25341 2.26308 8.2517 2.25 8.2517C2.23699 8.2517 2.23501 8.24976 2.23362 8.23566C2.23223 8.22155 2.23007 8.21943 2.21567 8.21807C2.20126 8.21671 2.19929 8.21478 2.19929 8.20203C2.19929 8.18922 2.19754 8.18754 2.18417 8.18754C2.17073 8.18754 2.16905 8.18589 2.16905 8.17273C2.16905 8.15964 2.16734 8.15793 2.15425 8.15793C2.14124 8.15793 2.13927 8.15599 2.13788 8.14189C2.13649 8.12778 2.13433 8.12566 2.11992 8.1243C2.10552 8.12294 2.10355 8.12101 2.10355 8.10826C2.10355 8.09545 2.10179 8.09377 2.08843 8.09377C2.07499 8.09377 2.07331 8.09213 2.07331 8.07896C2.07331 8.06588 2.0716 8.06416 2.05851 8.06416C2.0455 8.06416 2.04353 8.06222 2.04214 8.04812C2.04075 8.03401 2.03858 8.03189 2.02418 8.03053L2.00781 8.02898V8V7.97101L2.02418 7.96947C2.03858 7.96811 2.04075 7.96599 2.04214 7.95188C2.04353 7.93778 2.0455 7.93584 2.05851 7.93584C2.0716 7.93584 2.07331 7.93412 2.07331 7.92104C2.07331 7.90787 2.07499 7.90623 2.08843 7.90623C2.10179 7.90623 2.10355 7.90455 2.10355 7.89174C2.10355 7.87899 2.10552 7.87706 2.11992 7.8757C2.13433 7.87434 2.13649 7.87222 2.13788 7.85811C2.13927 7.84401 2.14124 7.84207 2.15425 7.84207C2.16734 7.84207 2.16905 7.84035 2.16905 7.82727C2.16905 7.8141 2.17073 7.81246 2.18417 7.81246C2.19754 7.81246 2.19929 7.81078 2.19929 7.79797C2.19929 7.78522 2.20126 7.78329 2.21567 7.78193C2.23007 7.78057 2.23223 7.77845 2.23362 7.76434C2.23501 7.75024 2.23699 7.7483 2.25 7.7483C2.26308 7.7483 2.2648 7.74659 2.2648 7.7335C2.2648 7.72034 2.26647 7.71869 2.27991 7.71869C2.29328 7.71869 2.29503 7.71701 2.29503 7.7042C2.29503 7.69145 2.29701 7.68952 2.31141 7.68816C2.32581 7.6868 2.32798 7.68468 2.32936 7.67057C2.33075 7.65647 2.33273 7.65453 2.34574 7.65453C2.35882 7.65453 2.36054 7.65282 2.36054 7.63973C2.36054 7.62657 2.36222 7.62492 2.37566 7.62492C2.38902 7.62492 2.39077 7.62324 2.39077 7.61043C2.39077 7.59768 2.39275 7.59575 2.40715 7.59439C2.42155 7.59303 2.42372 7.59091 2.4251 7.5768C2.42649 7.5627 2.42847 7.56076 2.44148 7.56076C2.45457 7.56076 2.45628 7.55905 2.45628 7.54596C2.45628 7.5328 2.45796 7.53115 2.4714 7.53115C2.48476 7.53115 2.48651 7.52948 2.48651 7.51666C2.48651 7.50392 2.48849 7.50198 2.50289 7.50062C2.51729 7.49926 2.51946 7.49714 2.52085 7.48304C2.52224 7.46893 2.52421 7.467 2.53722 7.467C2.55031 7.467 2.55202 7.46528 2.55202 7.45219C2.55202 7.43903 2.5537 7.43738 2.56714 7.43738C2.5805 7.43738 2.58226 7.43571 2.58226 7.42289C2.58226 7.41015 2.58423 7.40821 2.59863 7.40685C2.61303 7.40549 2.6152 7.40337 2.61659 7.38927C2.61798 7.37516 2.61995 7.37323 2.63296 7.37323C2.64605 7.37323 2.64776 7.37151 2.64776 7.35842C2.64776 7.34526 2.64944 7.34361 2.66288 7.34361C2.67624 7.34361 2.678 7.34194 2.678 7.32912C2.678 7.31638 2.67997 7.31444 2.69437 7.31308C2.70878 7.31172 2.71094 7.3096 2.71233 7.2955C2.71372 7.28139 2.71569 7.27946 2.72871 7.27946C2.74179 7.27946 2.74351 7.27774 2.74351 7.26465C2.74351 7.25149 2.74518 7.24985 2.75862 7.24985C2.77199 7.24985 2.77374 7.24817 2.77374 7.23535C2.77374 7.22261 2.77571 7.22067 2.79012 7.21931C2.80452 7.21795 2.80668 7.21583 2.80807 7.20173C2.80946 7.18762 2.81144 7.18569 2.82445 7.18569C2.83753 7.18569 2.83925 7.18397 2.83925 7.17088C2.83925 7.15772 2.84093 7.15608 2.85436 7.15608C2.86773 7.15608 2.86948 7.1544 2.86948 7.14158C2.86948 7.12884 2.87146 7.1269 2.88586 7.12554C2.90026 7.12418 2.90243 7.12206 2.90381 7.10796C2.9052 7.09385 2.90718 7.09192 2.92019 7.09192C2.93328 7.09192 2.93499 7.0902 2.93499 7.07711C2.93499 7.06395 2.93667 7.06231 2.95011 7.06231C2.96347 7.06231 2.96522 7.06063 2.96522 7.04781C2.96522 7.03507 2.9672 7.03313 2.9816 7.03177C2.996 7.03042 2.99817 7.02829 2.99955 7.01419C3.00095 7.00008 3.00292 6.99815 3.01593 6.99815C3.02902 6.99815 3.03073 6.99643 3.03073 6.98334C3.03073 6.97018 3.03241 6.96854 3.04585 6.96854C3.05921 6.96854 3.06097 6.96686 3.06097 6.95404C3.06097 6.9413 3.06294 6.93937 3.07734 6.938C3.09174 6.93665 3.09391 6.93452 3.0953 6.92042C3.09669 6.90631 3.09866 6.90438 3.11167 6.90438C3.12476 6.90438 3.12647 6.90266 3.12647 6.88957C3.12647 6.87641 3.12815 6.87477 3.14159 6.87477C3.15495 6.87477 3.15671 6.87309 3.15671 6.86027C3.15671 6.84753 3.15868 6.8456 3.17308 6.84423C3.18749 6.84288 3.18965 6.84075 3.19104 6.82665C3.19243 6.81255 3.1944 6.81061 3.20741 6.81061C3.2205 6.81061 3.22221 6.80889 3.22221 6.7958C3.22221 6.78264 3.22389 6.781 3.23733 6.781C3.2507 6.781 3.25245 6.77932 3.25245 6.7665C3.25245 6.75376 3.25442 6.75183 3.26883 6.75046C3.28323 6.74911 3.28539 6.74699 3.28678 6.73288C3.28817 6.71878 3.29015 6.71684 3.30316 6.71684C3.31624 6.71684 3.31796 6.71512 3.31796 6.70204C3.31796 6.68887 3.31963 6.68723 3.33307 6.68723C3.34644 6.68723 3.34819 6.68555 3.34819 6.67274C3.34819 6.65999 3.35017 6.65806 3.36457 6.6567C3.37897 6.65534 3.38114 6.65322 3.38252 6.63911C3.38391 6.62501 3.38589 6.62307 3.3989 6.62307C3.41198 6.62307 3.4137 6.62135 3.4137 6.60827C3.4137 6.5951 3.41538 6.59346 3.42882 6.59346C3.44218 6.59346 3.44393 6.59178 3.44393 6.57897C3.44393 6.56622 3.44591 6.56429 3.46031 6.56293C3.47471 6.56157 3.47688 6.55945 3.47826 6.54534C3.47965 6.53124 3.48163 6.5293 3.49464 6.5293C3.50773 6.5293 3.50944 6.52759 3.50944 6.5145C3.50944 6.50133 3.51112 6.49969 3.52456 6.49969C3.53792 6.49969 3.53967 6.49801 3.53967 6.4852C3.53967 6.47245 3.54165 6.47052 3.55605 6.46916C3.57045 6.4678 3.57262 6.46568 3.57401 6.45157C3.5754 6.43747 3.57737 6.43553 3.59038 6.43553C3.60347 6.43553 3.60518 6.43382 3.60518 6.42073C3.60518 6.40757 3.60686 6.40592 3.6203 6.40592C3.63366 6.40592 3.63542 6.40424 3.63542 6.39143C3.63542 6.37868 3.63739 6.37675 3.65179 6.37539C3.66619 6.37403 3.66836 6.37191 3.66975 6.3578C3.67114 6.3437 3.67311 6.34176 3.68612 6.34176C3.69921 6.34176 3.70092 6.34005 3.70092 6.32696C3.70092 6.3138 3.7026 6.31215 3.71604 6.31215C3.7294 6.31215 3.73116 6.31047 3.73116 6.29766C3.73116 6.28492 3.73313 6.28298 3.74753 6.28162C3.76194 6.28026 3.7641 6.27814 3.76549 6.26403C3.76688 6.24993 3.76885 6.24799 3.78187 6.24799C3.79495 6.24799 3.79667 6.24628 3.79667 6.23319C3.79667 6.22003 3.79834 6.21838 3.81178 6.21838C3.82515 6.21838 3.8269 6.21671 3.8269 6.20389C3.8269 6.19115 3.82887 6.18921 3.84328 6.18785C3.85768 6.18649 3.85984 6.18437 3.86123 6.17027C3.86262 6.15616 3.8646 6.15423 3.87761 6.15423C3.89069 6.15423 3.89241 6.15251 3.89241 6.13942C3.89241 6.12626 3.89409 6.12461 3.90752 6.12461C3.92089 6.12461 3.92264 6.12294 3.92264 6.11012C3.92264 6.09738 3.92462 6.09544 3.93902 6.09408C3.95342 6.09272 3.95559 6.0906 3.95697 6.0765C3.95836 6.06239 3.96034 6.06046 3.97335 6.06046C3.98644 6.06046 3.98815 6.05874 3.98815 6.04565C3.98815 6.03249 3.98983 6.03085 4.00327 6.03085C4.01663 6.03085 4.01838 6.02917 4.01838 6.01635C4.01838 6.00361 4.02036 6.00167 4.03476 6.00031C4.04916 5.99895 4.05133 5.99683 4.05271 5.98273C4.0541 5.96862 4.05608 5.96669 4.06909 5.96669C4.08218 5.96669 4.08389 5.96497 4.08389 5.95188C4.08389 5.93872 4.08557 5.93708 4.09901 5.93708C4.11237 5.93708 4.11412 5.9354 4.11412 5.92258C4.11412 5.90984 4.1161 5.9079 4.1305 5.90654C4.1449 5.90518 4.14707 5.90306 4.14846 5.88896C4.14985 5.87485 4.15182 5.87292 4.16483 5.87292C4.17792 5.87292 4.17963 5.8712 4.17963 5.85811C4.17963 5.84495 4.18131 5.84331 4.19475 5.84331C4.20811 5.84331 4.20987 5.84163 4.20987 5.82881C4.20987 5.81607 4.21184 5.81413 4.22624 5.81277C4.24065 5.81141 4.24281 5.80929 4.2442 5.79519C4.24559 5.78108 4.24756 5.77915 4.26057 5.77915C4.27366 5.77915 4.27537 5.77743 4.27537 5.76434C4.27537 5.75118 4.27705 5.74954 4.29049 5.74954C4.30385 5.74954 4.30561 5.74786 4.30561 5.73504C4.30561 5.7223 4.30758 5.72037 4.32199 5.719C4.33639 5.71765 4.33855 5.71552 4.33994 5.70142C4.34133 5.68731 4.34331 5.68538 4.35632 5.68538C4.3694 5.68538 4.37112 5.68366 4.37112 5.67057C4.37112 5.65741 4.37279 5.65577 4.38623 5.65577C4.3996 5.65577 4.40135 5.65409 4.40135 5.64127C4.40135 5.62853 4.40333 5.6266 4.41773 5.62523C4.43213 5.62388 4.4343 5.62175 4.43568 5.60765C4.43707 5.59354 4.43905 5.59161 4.45206 5.59161C4.46514 5.59161 4.46686 5.58989 4.46686 5.5768C4.46686 5.56364 4.46854 5.562 4.48198 5.562C4.49534 5.562 4.49709 5.56032 4.49709 5.5475C4.49709 5.53476 4.49907 5.53283 4.51347 5.53146C4.52787 5.53011 4.53004 5.52799 4.53142 5.51388C4.53281 5.49978 4.53479 5.49784 4.5478 5.49784C4.56089 5.49784 4.5626 5.49612 4.5626 5.48304C4.5626 5.46987 4.56428 5.46823 4.57772 5.46823C4.59108 5.46823 4.59283 5.46655 4.59283 5.45373C4.59283 5.44099 4.59481 5.43906 4.60921 5.4377C4.62361 5.43634 4.62578 5.43422 4.62716 5.42011C4.62856 5.40601 4.63053 5.40407 4.64354 5.40407C4.65663 5.40407 4.65834 5.40235 4.65834 5.38927C4.65834 5.3761 4.66002 5.37446 4.67346 5.37446C4.68682 5.37446 4.68858 5.37278 4.68858 5.35997C4.68858 5.34722 4.69055 5.34529 4.70495 5.34393C4.71935 5.34257 4.72152 5.34045 4.72291 5.32634C4.7243 5.31224 4.72627 5.3103 4.73928 5.3103C4.75237 5.3103 4.75408 5.30858 4.75408 5.2955C4.75408 5.28233 4.75576 5.28069 4.7692 5.28069C4.78256 5.28069 4.78432 5.27901 4.78432 5.2662C4.78432 5.25345 4.78629 5.25152 4.80069 5.25016C4.8151 5.2488 4.81726 5.24668 4.81865 5.23257C4.82004 5.21847 4.82201 5.21653 4.83503 5.21653C4.84811 5.21653 4.84982 5.21482 4.84982 5.20173C4.84982 5.18856 4.8515 5.18692 4.86494 5.18692C4.87831 5.18692 4.88006 5.18524 4.88006 5.17243C4.88006 5.15968 4.88203 5.15775 4.89644 5.15639C4.91084 5.15503 4.913 5.15291 4.91439 5.1388C4.91578 5.1247 4.91776 5.12276 4.93077 5.12276C4.94385 5.12276 4.94557 5.12105 4.94557 5.10796C4.94557 5.0948 4.94725 5.09315 4.96068 5.09315C4.97405 5.09315 4.9758 5.09147 4.9758 5.07866C4.9758 5.06591 4.97778 5.06398 4.99218 5.06262C5.00658 5.06126 5.00875 5.05914 5.01013 5.04503C5.01152 5.03093 5.0135 5.02899 5.02651 5.02899C5.0396 5.02899 5.04131 5.02728 5.04131 5.01419C5.04131 5.00103 5.04299 4.99938 5.05643 4.99938C5.06979 4.99938 5.07154 4.9977 5.07154 4.98489C5.07154 4.97215 5.07352 4.97021 5.08792 4.96885C5.10232 4.96749 5.10449 4.96537 5.10587 4.95126C5.10726 4.93716 5.10924 4.93523 5.12225 4.93523C5.13534 4.93523 5.13705 4.93351 5.13705 4.92042C5.13705 4.90726 5.13873 4.90561 5.15217 4.90561C5.16553 4.90561 5.16728 4.90394 5.16728 4.89112C5.16728 4.87838 5.16926 4.87644 5.18366 4.87508C5.19806 4.87372 5.20023 4.8716 5.20162 4.8575C5.20301 4.84339 5.20498 4.84146 5.21799 4.84146C5.23108 4.84146 5.23279 4.83974 5.23279 4.82665C5.23279 4.81349 5.23447 4.81184 5.24791 4.81184C5.26127 4.81184 5.26303 4.81017 5.26303 4.79735C5.26303 4.78461 5.265 4.78267 5.2794 4.78131C5.29381 4.77995 5.29597 4.77783 5.29736 4.76373C5.29875 4.74962 5.30072 4.74769 5.31373 4.74769C5.32682 4.74769 5.32853 4.74597 5.32853 4.73288C5.32853 4.71972 5.33021 4.71808 5.34365 4.71808C5.35702 4.71808 5.35877 4.7164 5.35877 4.70358C5.35877 4.69084 5.36074 4.6889 5.37515 4.68754C5.38955 4.68618 5.39171 4.68406 5.3931 4.66996C5.39449 4.65585 5.39647 4.65392 5.40948 4.65392C5.42256 4.65392 5.42428 4.6522 5.42428 4.63911C5.42428 4.62595 5.42595 4.62431 5.43939 4.62431C5.45276 4.62431 5.45451 4.62263 5.45451 4.60981C5.45451 4.59707 5.45649 4.59513 5.47089 4.59377C5.48529 4.59241 5.48746 4.59029 5.48884 4.57619C5.49023 4.56208 5.49221 4.56015 5.50522 4.56015C5.5183 4.56015 5.52002 4.55843 5.52002 4.54534C5.52002 4.53218 5.5217 4.53054 5.53514 4.53054C5.5485 4.53054 5.55025 4.52886 5.55025 4.51604C5.55025 4.5033 5.55223 4.50136 5.56663 4.5C5.58103 4.49865 5.5832 4.49652 5.58458 4.48242C5.58597 4.46831 5.58795 4.46638 5.60096 4.46638C5.61405 4.46638 5.61576 4.46466 5.61576 4.45157C5.61576 4.43841 5.61744 4.43677 5.63088 4.43677C5.64424 4.43677 5.64599 4.43509 5.64599 4.42227C5.64599 4.40953 5.64797 4.4076 5.66237 4.40623C5.67677 4.40488 5.67894 4.40275 5.68033 4.38865C5.68172 4.37454 5.68369 4.37261 5.6967 4.37261C5.70979 4.37261 5.7115 4.37089 5.7115 4.3578C5.7115 4.34464 5.71318 4.343 5.72662 4.343C5.73998 4.343 5.74174 4.34132 5.74174 4.3285C5.74174 4.31576 5.74371 4.31383 5.75811 4.31246C5.77251 4.31111 5.77468 4.30898 5.77607 4.29488C5.77746 4.28077 5.77943 4.27884 5.79244 4.27884C5.80553 4.27884 5.80724 4.27712 5.80724 4.26403C5.80724 4.25087 5.80892 4.24923 5.82236 4.24923C5.83572 4.24923 5.83748 4.24755 5.83748 4.23473C5.83748 4.22199 5.83945 4.22006 5.85385 4.21869C5.86826 4.21734 5.87042 4.21522 5.87181 4.20111C5.8732 4.18701 5.87517 4.18507 5.88819 4.18507C5.90127 4.18507 5.90299 4.18335 5.90299 4.17027C5.90299 4.1571 5.90466 4.15546 5.9181 4.15546C5.93147 4.15546 5.93322 4.15378 5.93322 4.14096C5.93322 4.12822 5.93519 4.12629 5.9496 4.12493C5.964 4.12357 5.96616 4.12145 5.96755 4.10734C5.96894 4.09324 5.97092 4.0913 5.98393 4.0913C5.99701 4.0913 5.99873 4.08958 5.99873 4.0765C5.99873 4.06333 6.00041 4.06169 6.01384 4.06169C6.02721 4.06169 6.02896 4.06001 6.02896 4.0472C6.02896 4.03445 6.03094 4.03252 6.04534 4.03116C6.05974 4.0298 6.06191 4.02768 6.06329 4.01357C6.06468 3.99947 6.06666 3.99753 6.07967 3.99753C6.09276 3.99753 6.09447 3.99581 6.09447 3.98273C6.09447 3.96956 6.09615 3.96792 6.10959 3.96792C6.12295 3.96792 6.1247 3.96624 6.1247 3.95343C6.1247 3.94068 6.12668 3.93875 6.14108 3.93739C6.15548 3.93603 6.15765 3.93391 6.15903 3.9198C6.16042 3.9057 6.1624 3.90376 6.17541 3.90376C6.1885 3.90376 6.19021 3.90205 6.19021 3.88896C6.19021 3.8758 6.19189 3.87415 6.20533 3.87415C6.21869 3.87415 6.22045 3.87247 6.22045 3.85966C6.22045 3.84691 6.22242 3.84498 6.23682 3.84362C6.25122 3.84226 6.25339 3.84014 6.25478 3.82603C6.25617 3.81193 6.25814 3.80999 6.27115 3.80999C6.28424 3.80999 6.28595 3.80828 6.28595 3.79519C6.28595 3.78203 6.28763 3.78038 6.30107 3.78038C6.31443 3.78038 6.31619 3.7787 6.31619 3.76589C6.31619 3.75314 6.31816 3.75121 6.33256 3.74985C6.34697 3.74849 6.34913 3.74637 6.35052 3.73226C6.35191 3.71816 6.35388 3.71622 6.36689 3.71622C6.37998 3.71622 6.38169 3.71451 6.38169 3.70142C6.38169 3.68826 6.38337 3.68661 6.39681 3.68661C6.41017 3.68661 6.41193 3.68494 6.41193 3.67212C6.41193 3.65938 6.4139 3.65744 6.42831 3.65608C6.44271 3.65472 6.44487 3.6526 6.44626 3.63849C6.44765 3.62439 6.44963 3.62246 6.46264 3.62246C6.47572 3.62246 6.47744 3.62074 6.47744 3.60765C6.47744 3.59449 6.47911 3.59284 6.49255 3.59284C6.50599 3.59284 6.50767 3.5912 6.50767 3.57804C6.50767 3.56441 6.50907 3.56323 6.52531 3.56323C6.5421 3.56323 6.54294 3.56241 6.54294 3.54596C6.54294 3.53006 6.54414 3.52869 6.55806 3.52869C6.5715 3.52869 6.57318 3.52704 6.57318 3.51388C6.57318 3.50072 6.57486 3.49907 6.58829 3.49907C6.60173 3.49907 6.60341 3.49743 6.60341 3.48427C6.60341 3.47064 6.60481 3.46946 6.62105 3.46946C6.63784 3.46946 6.63869 3.46864 6.63869 3.45219C6.63869 3.43629 6.63988 3.43492 6.6538 3.43492C6.66724 3.43492 6.66892 3.43327 6.66892 3.42011C6.66892 3.40695 6.6706 3.40531 6.68404 3.40531C6.69748 3.40531 6.69915 3.40366 6.69915 3.3905C6.69915 3.37687 6.70055 3.37569 6.71679 3.37569C6.73359 3.37569 6.73443 3.37487 6.73443 3.35842C6.73443 3.34252 6.73563 3.34115 6.74954 3.34115C6.76298 3.34115 6.76466 3.3395 6.76466 3.32634C6.76466 3.31318 6.76634 3.31154 6.77978 3.31154C6.79322 3.31154 6.7949 3.30989 6.7949 3.29673C6.7949 3.2831 6.7963 3.28192 6.81253 3.28192C6.82933 3.28192 6.83017 3.2811 6.83017 3.26465C6.83017 3.24875 6.83137 3.24738 6.84529 3.24738C6.85873 3.24738 6.8604 3.24573 6.8604 3.23257C6.8604 3.21941 6.86208 3.21777 6.87552 3.21777C6.88896 3.21777 6.89064 3.21612 6.89064 3.20296C6.89064 3.18933 6.89204 3.18816 6.90827 3.18816C6.92507 3.18816 6.92591 3.18733 6.92591 3.17088C6.92591 3.15498 6.92711 3.15361 6.94103 3.15361C6.95447 3.15361 6.95615 3.15197 6.95615 3.1388C6.95615 3.12564 6.95782 3.124 6.97126 3.124C6.9847 3.124 6.98638 3.12235 6.98638 3.10919C6.98638 3.09556 6.98778 3.09439 7.00402 3.09439C7.02081 3.09439 7.02165 3.09356 7.02165 3.07711C7.02165 3.06121 7.02285 3.05984 7.03677 3.05984C7.05021 3.05984 7.05189 3.0582 7.05189 3.04503C7.05189 3.03187 7.05357 3.03023 7.067 3.03023C7.08044 3.03023 7.08212 3.02858 7.08212 3.01542C7.08212 3.00179 7.08352 3.00062 7.09976 3.00062C7.11655 3.00062 7.11739 2.99979 7.11739 2.98334C7.11739 2.96744 7.11859 2.96607 7.13251 2.96607C7.14595 2.96607 7.14763 2.96443 7.14763 2.95126C7.14763 2.93818 7.14934 2.93646 7.16243 2.93646C7.17544 2.93646 7.17741 2.93452 7.17881 2.92042C7.18019 2.90631 7.18236 2.90419 7.19676 2.90284C7.21116 2.90147 7.21314 2.89954 7.21314 2.8868C7.21314 2.87398 7.21489 2.8723 7.22825 2.8723C7.24169 2.8723 7.24337 2.87066 7.24337 2.8575C7.24337 2.84441 7.24508 2.84269 7.25817 2.84269C7.27118 2.84269 7.27316 2.84075 7.27455 2.82665C7.27593 2.81255 7.2781 2.81042 7.2925 2.80907C7.3069 2.8077 7.30888 2.80577 7.30888 2.79303C7.30888 2.78021 7.31063 2.77853 7.324 2.77853C7.33743 2.77853 7.33911 2.77689 7.33911 2.76373C7.33911 2.75064 7.34083 2.74892 7.35391 2.74892C7.36692 2.74892 7.3689 2.74699 7.37029 2.73288C7.37167 2.71878 7.37384 2.71665 7.38824 2.7153C7.40264 2.71393 7.40462 2.712 7.40462 2.69926C7.40462 2.68644 7.40637 2.68476 7.41974 2.68476C7.43318 2.68476 7.43485 2.68312 7.43485 2.66996C7.43485 2.65687 7.43657 2.65515 7.44965 2.65515C7.46266 2.65515 7.46464 2.65322 7.46603 2.63911C7.46742 2.62501 7.46958 2.62288 7.48398 2.62153C7.49839 2.62017 7.50036 2.61823 7.50036 2.60549C7.50036 2.59267 7.50212 2.59099 7.51548 2.59099C7.52884 2.59099 7.5306 2.58932 7.5306 2.5765C7.5306 2.56376 7.53257 2.56182 7.54697 2.56046C7.56137 2.5591 7.56354 2.55698 7.56493 2.54287C7.56632 2.52877 7.56829 2.52684 7.5813 2.52684C7.59439 2.52684 7.5961 2.52512 7.5961 2.51203C7.5961 2.49887 7.59778 2.49722 7.61122 2.49722C7.62458 2.49722 7.62634 2.49555 7.62634 2.48273C7.62634 2.46999 7.62831 2.46805 7.64271 2.46669C7.65712 2.46533 7.65928 2.46321 7.66067 2.44911C7.66206 2.435 7.66403 2.43307 7.67705 2.43307C7.69013 2.43307 7.69185 2.43135 7.69185 2.41826C7.69185 2.4051 7.69352 2.40345 7.70696 2.40345C7.72033 2.40345 7.72208 2.40178 7.72208 2.38896C7.72208 2.37622 7.72405 2.37428 7.73846 2.37292C7.75286 2.37156 7.75502 2.36944 7.75641 2.35534C7.7578 2.34123 7.75978 2.3393 7.77279 2.3393C7.78587 2.3393 7.78759 2.33758 7.78759 2.32449C7.78759 2.31133 7.78927 2.30969 7.8027 2.30969C7.81614 2.30969 7.81782 2.30804 7.81782 2.29488C7.81782 2.28125 7.81922 2.28007 7.83546 2.28007C7.85225 2.28007 7.85309 2.27925 7.85309 2.2628C7.85309 2.2469 7.85429 2.24553 7.86821 2.24553C7.88165 2.24553 7.88333 2.24388 7.88333 2.23072C7.88333 2.21756 7.88501 2.21592 7.89845 2.21592C7.91189 2.21592 7.91356 2.21427 7.91356 2.20111C7.91356 2.18748 7.91496 2.1863 7.9312 2.1863C7.94799 2.1863 7.94884 2.18548 7.94884 2.16903C7.94884 2.15313 7.95004 2.15176 7.96395 2.15176C7.97739 2.15176 7.97907 2.15011 7.97907 2.13695C7.97907 2.12379 7.98075 2.12215 7.99419 2.12215C8.00763 2.12215 8.00931 2.1205 8.00931 2.10734C8.00931 2.09371 8.01071 2.09254 8.02694 2.09254C8.04374 2.09254 8.04458 2.09171 8.04458 2.07526C8.04458 2.05936 8.04578 2.05799 8.0597 2.05799C8.07313 2.05799 8.07481 2.05635 8.07481 2.04318C8.07481 2.03002 8.07649 2.02838 8.08993 2.02838C8.10337 2.02838 8.10505 2.02673 8.10505 2.01357C8.10505 1.99994 8.10645 1.99877 8.12268 1.99877C8.13948 1.99877 8.14032 1.99794 8.14032 1.98149C8.14032 1.96559 8.14152 1.96422 8.15544 1.96422C8.16888 1.96422 8.17055 1.96258 8.17055 1.94941C8.17055 1.93625 8.17223 1.93461 8.18567 1.93461C8.19911 1.93461 8.20079 1.93296 8.20079 1.9198C8.20079 1.90617 8.20219 1.905 8.21842 1.905C8.23522 1.905 8.23606 1.90417 8.23606 1.88772C8.23606 1.87182 8.23726 1.87045 8.25118 1.87045C8.26462 1.87045 8.2663 1.86881 8.2663 1.85564C8.2663 1.84248 8.26797 1.84084 8.28141 1.84084C8.29485 1.84084 8.29653 1.8392 8.29653 1.82603C8.29653 1.8124 8.29793 1.81123 8.31417 1.81123C8.33096 1.81123 8.3318 1.8104 8.3318 1.79395C8.3318 1.77805 8.333 1.77668 8.34692 1.77668C8.36036 1.77668 8.36204 1.77504 8.36204 1.76188C8.36204 1.74871 8.36372 1.74707 8.37716 1.74707C8.39059 1.74707 8.39227 1.74543 8.39227 1.73226C8.39227 1.71863 8.39367 1.71746 8.40991 1.71746C8.4267 1.71746 8.42755 1.71663 8.42755 1.70019C8.42755 1.68428 8.42874 1.68291 8.44266 1.68291C8.4561 1.68291 8.45778 1.68127 8.45778 1.66811C8.45778 1.65494 8.45946 1.6533 8.4729 1.6533C8.48634 1.6533 8.48801 1.65166 8.48801 1.63849C8.48801 1.62486 8.48942 1.62369 8.50565 1.62369C8.52245 1.62369 8.52329 1.62286 8.52329 1.60642C8.52329 1.59051 8.52449 1.58914 8.5384 1.58914C8.55184 1.58914 8.55352 1.5875 8.55352 1.57434C8.55352 1.56117 8.5552 1.55953 8.56864 1.55953C8.58208 1.55953 8.58376 1.55789 8.58376 1.54473C8.58376 1.53109 8.58516 1.52992 8.60139 1.52992C8.61819 1.52992 8.61903 1.5291 8.61903 1.51265C8.61903 1.49675 8.62023 1.49537 8.63415 1.49537C8.64758 1.49537 8.64926 1.49373 8.64926 1.48057C8.64926 1.46741 8.65094 1.46576 8.66438 1.46576C8.67782 1.46576 8.6795 1.46412 8.6795 1.45096C8.6795 1.43733 8.6809 1.43615 8.69713 1.43615C8.71393 1.43615 8.71477 1.43533 8.71477 1.41888C8.71477 1.40298 8.71597 1.4016 8.72989 1.4016C8.74333 1.4016 8.74501 1.39996 8.74501 1.3868C8.74501 1.37364 8.74668 1.37199 8.76012 1.37199C8.77356 1.37199 8.77524 1.37035 8.77524 1.35719C8.77524 1.34414 8.77697 1.34238 8.78986 1.34238C8.80398 1.34238 8.8046 1.34137 8.80799 1.31277C8.81138 1.28417 8.812 1.28316 8.82612 1.28316C8.83948 1.28316 8.84075 1.28166 8.84075 1.26589C8.84075 1.25016 8.84204 1.24861 8.85521 1.24861C8.86914 1.24861 8.86981 1.24752 8.87306 1.21931C8.87621 1.19209 8.87742 1.18989 8.89009 1.18846C8.90188 1.18713 8.90395 1.1844 8.9053 1.16841C8.90662 1.15281 8.90869 1.14991 8.9185 1.14991C8.92803 1.14991 8.93069 1.14656 8.93325 1.1314C8.93497 1.12122 8.9364 1.10123 8.93643 1.08698C8.93649 1.0615 8.93674 1.06107 8.95161 1.06107H8.96672V1.02228C8.96672 1.00094 8.96816 0.973182 8.96993 0.960592C8.97264 0.941192 8.97484 0.937693 8.98428 0.937693C8.99507 0.937693 8.99553 0.9356 8.99835 0.873535C8.99995 0.838248 8.99995 0.780506 8.99835 0.745219C8.99553 0.683154 8.99507 0.681061 8.98428 0.681061C8.97484 0.681061 8.97264 0.677562 8.96993 0.658162C8.96816 0.645572 8.96672 0.617811 8.96672 0.596471V0.55768H8.95161H8.93649V0.513263V0.468846H8.92196C8.9078 0.468846 8.90734 0.468037 8.90392 0.436767C8.90049 0.405394 8.90009 0.404688 8.88569 0.404688C8.87107 0.404688 8.87098 0.404511 8.87098 0.375077V0.345466H8.85586C8.84195 0.345466 8.84075 0.344094 8.84075 0.328192C8.84075 0.312375 8.8395 0.310919 8.82595 0.310919C8.81294 0.310919 8.81096 0.308985 8.80957 0.29488C8.80818 0.280775 8.80602 0.278653 8.79162 0.277296C8.77722 0.275933 8.77524 0.273999 8.77524 0.261256C8.77524 0.248439 8.77349 0.246761 8.76012 0.246761C8.74668 0.246761 8.74501 0.245118 8.74501 0.231956C8.74501 0.218793 8.74333 0.21715 8.72989 0.21715C8.71652 0.21715 8.71477 0.215472 8.71477 0.202655C8.71477 0.189912 8.7128 0.187978 8.69839 0.186616C8.68399 0.185258 8.68183 0.183136 8.68044 0.169031C8.67899 0.154349 8.6774 0.152992 8.66154 0.152992C8.64566 0.152992 8.64422 0.151763 8.64422 0.138186V0.123381H8.61399C8.58398 0.123381 8.58376 0.123272 8.58376 0.109059C8.58376 0.0952449 8.5827 0.0946181 8.55381 0.0913362C8.52618 0.0881925 8.52375 0.0869192 8.52232 0.0748081C8.52078 0.0617791 8.52045 0.0616804 8.47416 0.060269L8.42755 0.0588526V0.0442295V0.0296113H8.37967H8.3318V0.0148057V0H8.17055H8.00931V0.0148057Z" fill="#153750"/>
</svg>
