<svg width="13" height="14" viewBox="0 0 13 14" fill="none" xmlns="http://www.w3.org/2000/svg">
<path d="M6.54156 13.3144C6.36372 13.3154 6.1896 13.2634 6.0414 13.1651C5.8932 13.0668 5.77763 12.9266 5.70944 12.7624C5.64124 12.5981 5.6235 12.4173 5.65848 12.2429C5.69346 12.0685 5.77958 11.9085 5.90585 11.7833L10.6513 7.04685L5.90585 2.31039C5.75917 2.13911 5.68252 1.91878 5.69123 1.69344C5.69993 1.4681 5.79334 1.25435 5.9528 1.09489C6.11226 0.935428 6.32602 0.842013 6.55136 0.833309C6.7767 0.824605 6.99703 0.901254 7.16831 1.04794L12.5405 6.42009C12.7072 6.58785 12.8008 6.81478 12.8008 7.05132C12.8008 7.28786 12.7072 7.51479 12.5405 7.68255L7.16831 13.0547C7.00154 13.2201 6.77645 13.3134 6.54156 13.3144Z" fill="white"/>
<path d="M1.16937 13.3143C0.991525 13.3154 0.817405 13.2634 0.669206 13.1651C0.521006 13.0668 0.405441 12.9266 0.337244 12.7623C0.269048 12.5981 0.251309 12.4172 0.286291 12.2429C0.321272 12.0685 0.407388 11.9085 0.53366 11.7833L5.27907 7.04682L0.53366 2.31036C0.365061 2.14176 0.270342 1.91309 0.270342 1.67466C0.270342 1.43622 0.365061 1.20755 0.53366 1.03895C0.70226 0.870353 0.93093 0.775635 1.16937 0.775635C1.4078 0.775635 1.63647 0.870353 1.80507 1.03895L7.17723 6.41111C7.34399 6.57887 7.43759 6.8058 7.43759 7.04234C7.43759 7.27888 7.34399 7.50581 7.17723 7.67357L1.80507 13.0457C1.72215 13.1303 1.62326 13.1976 1.51414 13.2437C1.40502 13.2898 1.28783 13.3138 1.16937 13.3143Z" fill="white"/>
</svg>
