<svg width="14" height="14" viewBox="0 0 14 14" fill="none" xmlns="http://www.w3.org/2000/svg">
<path opacity="0.7" d="M1.39132 2.37833C1.41592 2.34426 1.43078 2.3111 1.42432 2.30464C1.41787 2.29818 1.47261 2.23289 1.54597 2.15953C1.61933 2.08617 1.68462 2.03143 1.69108 2.03788C1.69754 2.04434 1.73069 2.02948 1.76477 2.00488C1.79885 1.98027 1.83271 1.96611 1.84003 1.97343C1.84734 1.98074 1.86833 1.97172 1.88667 1.95338C1.90501 1.93504 1.9265 1.92652 1.93442 1.93445C1.95015 1.95017 2.02014 1.95446 2.03403 1.94056C2.04847 1.92613 2.1983 1.93157 2.21381 1.94708C2.22178 1.95505 2.23419 1.95569 2.24139 1.94849C2.24858 1.9413 2.27337 1.94678 2.29647 1.96068C2.31957 1.97458 2.34383 1.98059 2.35037 1.97406C2.35692 1.96751 2.37364 1.97353 2.38753 1.98743C2.40143 2.00133 2.44354 2.02542 2.48111 2.04099C2.54075 2.06569 2.79444 2.3143 4.48064 4.0005L6.41185 5.93172L8.32625 4.01733C9.99776 2.34581 10.2493 2.09941 10.3087 2.07523C10.3461 2.05999 10.388 2.03626 10.4018 2.02249C10.4156 2.00871 10.4323 2.00283 10.4389 2.00944C10.4455 2.01603 10.4697 2.01023 10.4927 1.99653C10.5156 1.98283 10.5404 1.97757 10.5476 1.98482C10.5549 1.99209 10.5673 1.99155 10.5752 1.98366C10.5906 1.96828 10.7404 1.96415 10.7549 1.97871C10.7689 1.99273 10.8389 1.98906 10.8545 1.97347C10.8623 1.96561 10.8839 1.97432 10.9024 1.99282C10.9209 2.01132 10.942 2.02052 10.9492 2.01328C10.9565 2.00602 10.9905 2.02048 11.0248 2.04539C11.0591 2.07029 11.0923 2.08544 11.0987 2.07904C11.1051 2.07264 11.1709 2.12795 11.2449 2.20196C11.3189 2.27596 11.3742 2.34174 11.3678 2.34814C11.3614 2.35454 11.3766 2.38783 11.4015 2.42212C11.4264 2.45642 11.4409 2.4904 11.4336 2.49766C11.4264 2.5049 11.4356 2.52597 11.4541 2.54447C11.4726 2.56297 11.4813 2.58454 11.4734 2.59239C11.4578 2.60799 11.4541 2.67794 11.4682 2.69196C11.4827 2.70652 11.4786 2.85631 11.4632 2.87169C11.4553 2.87958 11.4545 2.8917 11.4614 2.8986C11.4683 2.90551 11.4647 2.92891 11.4534 2.9506C11.4421 2.9723 11.4337 2.99689 11.4347 3.00524C11.4357 3.01359 11.4183 3.05621 11.396 3.09994C11.3615 3.16758 11.0684 3.46771 9.4354 5.10733L7.51534 7.0352L9.4502 8.97006C11.1306 10.6505 11.3859 10.9109 11.3916 10.9506C11.3952 10.9757 11.4176 11.0162 11.4414 11.0405C11.4652 11.0648 11.4794 11.09 11.4728 11.0965C11.4663 11.103 11.4723 11.1273 11.4862 11.1504C11.5001 11.1735 11.5056 11.1983 11.4984 11.2055C11.4912 11.2127 11.4918 11.2251 11.4998 11.2331C11.5153 11.2486 11.5208 11.3984 11.5063 11.4128C11.4924 11.4267 11.4967 11.4967 11.5124 11.5125C11.5204 11.5204 11.5118 11.5419 11.4935 11.5602C11.4752 11.5786 11.4661 11.5995 11.4735 11.6069C11.4808 11.6142 11.4666 11.648 11.442 11.6821C11.4174 11.7162 11.4025 11.7493 11.409 11.7558C11.4155 11.7623 11.3607 11.8276 11.2874 11.9009C11.214 11.9743 11.1487 12.029 11.1422 12.0226C11.1358 12.0161 11.1026 12.031 11.0685 12.0556C11.0345 12.0802 11.0006 12.0943 10.9933 12.087C10.986 12.0797 10.965 12.0887 10.9467 12.1071C10.9283 12.1254 10.9068 12.1339 10.8989 12.126C10.8832 12.1103 10.8132 12.106 10.7993 12.1199C10.7849 12.1343 10.635 12.1289 10.6195 12.1134C10.6115 12.1054 10.5991 12.1048 10.5919 12.112C10.5847 12.1191 10.56 12.1137 10.5368 12.0998C10.5137 12.0859 10.4895 12.0798 10.483 12.0864C10.4764 12.0929 10.4597 12.0869 10.4458 12.073C10.4319 12.0591 10.3898 12.035 10.3522 12.0194C10.2926 11.9948 10.0389 11.7462 8.35278 10.06L6.42164 8.1289L4.49377 10.049C2.85414 11.682 2.55402 11.9751 2.48638 12.0096C2.44265 12.0318 2.40003 12.0492 2.39168 12.0482C2.38333 12.0472 2.35876 12.0556 2.33704 12.0669C2.31533 12.0783 2.29195 12.0819 2.28504 12.075C2.27814 12.0681 2.26602 12.0689 2.25812 12.0768C2.24275 12.0922 2.09296 12.0963 2.0784 12.0817C2.06438 12.0677 1.99443 12.0714 1.97883 12.087C1.97098 12.0948 1.94941 12.0861 1.93091 12.0676C1.91241 12.0491 1.89134 12.0399 1.8841 12.0472C1.87684 12.0544 1.84286 12.04 1.80856 12.0151C1.77427 11.9902 1.74098 11.975 1.73458 11.9814C1.72817 11.9878 1.6624 11.9325 1.5884 11.8585C1.51439 11.7845 1.45908 11.7187 1.46548 11.7123C1.47188 11.7059 1.45673 11.6726 1.43182 11.6383C1.40692 11.604 1.39246 11.57 1.39972 11.5628C1.40696 11.5555 1.39776 11.5345 1.37926 11.516C1.36076 11.4975 1.35205 11.4759 1.35991 11.468C1.3755 11.4525 1.37917 11.3825 1.36515 11.3685C1.35059 11.3539 1.35472 11.2041 1.3701 11.1888C1.37799 11.1809 1.37853 11.1685 1.37126 11.1612C1.36401 11.1539 1.36927 11.1292 1.38297 11.1062C1.39667 11.0832 1.40247 11.059 1.39588 11.0524C1.38927 11.0458 1.39515 11.0292 1.40893 11.0154C1.4227 11.0016 1.44643 10.9597 1.46167 10.9223C1.48585 10.8628 1.73225 10.6113 3.40377 8.93981L5.31816 7.02542L3.38694 5.0942C1.70074 3.408 1.45213 3.15431 1.42743 3.09467C1.41186 3.0571 1.38777 3.01499 1.37387 3.0011C1.35997 2.9872 1.35395 2.97048 1.3605 2.96393C1.36703 2.95739 1.36102 2.93313 1.34712 2.91003C1.33322 2.88693 1.32774 2.86214 1.33493 2.85495C1.34213 2.84775 1.34149 2.83534 1.33352 2.82737C1.31801 2.81186 1.31257 2.66203 1.327 2.6476C1.3409 2.6337 1.33661 2.56371 1.32089 2.54798C1.31296 2.54006 1.32148 2.51857 1.33982 2.50023C1.35816 2.48189 1.36718 2.4609 1.35987 2.45359C1.35255 2.44627 1.36671 2.41241 1.39132 2.37833Z" fill="#658399"/>
</svg>
