<svg width="17" height="16" viewBox="0 0 17 16" fill="none" xmlns="http://www.w3.org/2000/svg">
<path fill-rule="evenodd" clip-rule="evenodd" d="M6.96952 0.0393609C6.43184 0.183739 0.494733 2.25342 0.357357 2.3444C0.272666 2.40045 0.160607 2.5182 0.10834 2.60602L0.0133099 2.76574L0.00156428 5.09558C-0.0166435 8.70808 0.112255 9.48417 1.01976 11.2248C2.51606 14.095 6.08962 16.4453 8.02401 15.8315C9.26967 15.4362 9.37215 15.3096 9.01199 14.6103C8.23574 13.1034 8.3638 11.4781 9.37546 9.99806C9.76151 9.43323 9.68841 9.06591 9.12659 8.7479C8.7738 8.54818 6.47654 8.45183 5.82764 8.60955C5.21481 8.75851 4.86023 9.24333 4.85962 9.93304C4.85913 10.5606 4.52105 10.9194 4.07996 10.7606C3.28421 10.474 3.52547 8.89794 4.50356 7.99336C5.01958 7.5161 5.02133 7.50961 4.78649 6.95425C3.6776 4.332 7.10872 2.16704 9.21402 4.16059C10.0379 4.94066 10.2381 5.99145 9.76337 7.04339C9.55883 7.49667 9.56962 7.52588 10.1289 8.03142C10.7804 8.6203 10.7865 8.62274 11.1889 8.4613C12.1737 8.06612 12.495 8.00246 13.5141 8.00038C14.7047 7.99794 14.6 8.28032 14.5839 5.1135L14.5719 2.76574L14.4769 2.60602C14.3112 2.32758 14.2436 2.3002 10.8384 1.13241C7.38819 -0.050786 7.34774 -0.0622201 6.96952 0.0393609ZM6.84735 4.62581C5.22872 5.12321 5.59345 7.35373 7.29342 7.35373C9.22242 7.35373 9.2813 4.64237 7.35352 4.5866C7.13525 4.58029 6.94842 4.59477 6.84735 4.62581ZM12.7565 9.18218C9.81499 9.70898 8.70367 13.118 10.8475 15.0382C13.1786 17.1262 17 15.5926 17 12.569C17 10.4344 14.9409 8.79095 12.7565 9.18218ZM14.5756 11.553C15.0421 11.8412 14.9416 12.1703 14.1579 12.9209C13.2279 13.8116 13.0289 13.8601 12.4339 13.3406C11.6028 12.6151 11.8198 11.8475 12.7838 12.1026C13.1395 12.1967 13.2154 12.1718 13.608 11.8319C14.0371 11.4605 14.3022 11.3841 14.5756 11.553Z" fill="#658399"/>
</svg>
