<svg width="17" height="13" viewBox="0 0 17 13" fill="none" xmlns="http://www.w3.org/2000/svg">
<path fill-rule="evenodd" clip-rule="evenodd" d="M8.30861 0.0524844C8.01923 0.140423 7.87609 0.368627 6.42927 3.04856C4.51454 6.59512 4.99652 6.3264 2.6645 5.14732C0.931634 4.27115 0.709862 4.18193 0.448138 4.25552C0.0198187 4.37593 -0.0936592 4.78126 0.0743359 5.59084C1.44093 12.1762 1.50779 12.4708 1.68808 12.6992C1.94709 13.0272 1.31951 12.9994 8.46595 12.9994H14.864L15.0475 12.892C15.4038 12.6834 15.3823 12.7566 16.2266 8.87449C17.1685 4.54266 17.1679 4.54949 16.6637 4.29461C16.3292 4.12556 16.3744 4.10782 13.7553 5.43554C12.0758 6.28692 12.4291 6.54812 10.5485 3.06458C8.84094 -0.0983049 8.83423 -0.107327 8.30861 0.0524844Z" fill="#658399"/>
</svg>
