<svg width="20" height="12" viewBox="0 0 20 12" fill="none" xmlns="http://www.w3.org/2000/svg">
<path fill-rule="evenodd" clip-rule="evenodd" d="M2.39383 0.0647404C2.043 0.190977 1.90831 0.469483 1.90441 1.07662C1.90043 1.69589 1.80747 1.83979 1.36457 1.91237C0.641679 2.03087 0.442376 2.68567 1.02901 3.01501C1.13056 3.07204 1.35181 3.08331 2.70579 3.10053C4.56261 3.12414 4.67503 3.15656 4.67503 3.6681C4.67503 4.18844 4.51929 4.22793 2.37434 4.25138C0.368403 4.27333 0.450019 4.26265 0.16138 4.5414C-0.0212722 4.71779 -0.0212722 4.97551 0.16138 5.1519C0.457701 5.43807 0.263741 5.41989 3.25172 5.44192C5.69658 5.45994 5.95352 5.46799 6.06446 5.52978C6.50596 5.77579 6.50596 6.29859 6.06446 6.54459C5.95352 6.60638 5.69658 6.61444 3.25172 6.63246C0.723841 6.65111 0.55281 6.65678 0.424595 6.72619C-0.365753 7.15407 0.00138378 7.76986 1.07846 7.82279C1.86413 7.86141 1.90055 7.90867 1.90441 8.89448C1.90866 9.97596 2.08472 10.203 2.92026 10.2041C3.4938 10.2048 3.63141 10.2891 3.90091 10.805C4.73337 12.3983 6.99538 12.3983 7.82784 10.805C8.16203 10.1653 7.9529 10.2045 11.0312 10.2045C14.1095 10.2045 13.9004 10.1653 14.2345 10.805C15.067 12.3983 17.329 12.3983 18.1615 10.805C18.4214 10.3075 18.5759 10.2047 19.0644 10.2043C19.3785 10.204 19.5259 10.1622 19.7919 9.99818L20 9.8698V7.73136V5.59292L19.8398 5.27965C19.3259 4.27436 18.9674 4.17209 15.9559 4.17177C13.6634 4.17158 13.579 4.16554 13.3707 3.98716C13.1146 3.7679 13.1194 3.80283 13.0979 1.9875C13.0762 0.150181 13.0806 0.179111 12.8037 0.0613275C12.6062 -0.0226053 2.62757 -0.0193512 2.39383 0.0647404ZM14.4493 0.325547C14.2911 0.424243 14.2678 0.588299 14.2678 1.60117C14.2679 3.06477 14.1788 2.98771 15.8528 2.97239C17.5301 2.95703 17.5893 2.80131 16.439 1.42965C15.8557 0.7341 14.7649 0.128791 14.4493 0.325547ZM6.30342 8.79792C7.09579 9.19977 7.09579 10.2956 6.30342 10.6975C5.63555 11.0362 4.83464 10.5181 4.83187 9.74555C4.82914 8.98206 5.63859 8.4608 6.30342 8.79792ZM16.637 8.79792C17.6229 9.29787 17.2935 10.7993 16.198 10.7993C15.4445 10.7993 14.9331 9.97822 15.2647 9.30089C15.5263 8.76677 16.1354 8.54354 16.637 8.79792Z" fill="#658399"/>
</svg>
