<svg width="18" height="16" viewBox="0 0 18 16" fill="none" xmlns="http://www.w3.org/2000/svg">
<path fill-rule="evenodd" clip-rule="evenodd" d="M8.46946 0.386257C6.26734 0.786501 5.16593 3.33633 6.40192 5.17267C8.04231 7.60985 11.7677 6.69279 12.0924 3.77187C12.3165 1.75526 10.4636 0.0237753 8.46946 0.386257ZM3.18164 3.28286C1.29449 3.57695 0.537469 5.88337 1.8843 7.23544C3.11347 8.46934 5.14181 7.97445 5.72196 6.29911C6.26699 4.72524 4.83514 3.02516 3.18164 3.28286ZM14.1504 3.28286C12.2698 3.57593 11.5085 5.88602 12.8491 7.23177C14.3523 8.7407 16.8998 7.60064 16.7942 5.46637C16.7277 4.12323 15.4625 3.07838 14.1504 3.28286ZM7.02531 7.28375C6.00427 7.46268 5.21986 8.15874 4.91657 9.15492C4.82161 9.46683 4.76473 14.7446 4.85198 15.1469C4.96557 15.6706 4.77868 15.648 9 15.648C13.2213 15.648 13.0344 15.6706 13.148 15.1469C13.2342 14.7497 13.1785 9.46715 13.0849 9.16039C12.8138 8.27139 12.1635 7.61743 11.2846 7.34975C11.0054 7.26473 7.44834 7.2096 7.02531 7.28375ZM2.32031 8.62667C1.25529 8.77123 0.517113 9.40179 0.0880312 10.5335L0 10.7657V12.5927V14.4197L0.144633 14.6988C0.556242 15.493 0.929742 15.6465 2.45327 15.6474C3.93405 15.6484 3.76172 16.0527 3.76172 12.5777C3.76172 10.5543 3.77371 9.68659 3.80464 9.47106C3.87626 8.97207 3.86578 8.81926 3.75219 8.70516L3.65477 8.60733L3.1018 8.60151C2.79766 8.5983 2.446 8.60963 2.32031 8.62667ZM14.3921 8.614C14.1592 8.65988 14.1098 8.87506 14.1954 9.47106C14.2263 9.68659 14.2383 10.5543 14.2383 12.5777C14.2383 16.0527 14.0659 15.6484 15.5467 15.6474C17.0703 15.6465 17.4438 15.493 17.8554 14.6988L18 14.4197V12.5927V10.7657L17.912 10.5335C17.3555 9.06584 15.9605 8.30509 14.3921 8.614Z" fill="#658399"/>
</svg>
