<svg width="19" height="16" viewBox="0 0 19 16" fill="none" xmlns="http://www.w3.org/2000/svg">
<path fill-rule="evenodd" clip-rule="evenodd" d="M18.4624 7.23723C18.4381 7.21791 18.347 7.16481 18.26 7.11925L18.1017 7.03641L14.9255 7.02695C11.2846 7.01612 11.3755 7.00812 11.2622 7.34914C11.1783 7.60187 11.2422 7.702 11.9326 8.39983C12.7855 9.26194 12.8036 9.31966 12.3757 9.81716C10.4161 12.0958 7.35142 13.012 4.28322 12.2364C3.65935 12.0787 3.45443 12.1241 3.45443 12.4201C3.45443 12.594 3.88987 13.0754 4.49968 13.5757C7.79601 16.2799 12.5289 16.1176 15.6826 13.1923C16.2331 12.6817 16.2232 12.6793 17.0995 13.5357C17.8395 14.2589 17.9956 14.3339 18.3479 14.1357L18.4886 14.0565L18.4975 10.6645C18.5046 7.97703 18.4973 7.26504 18.4624 7.23723ZM15.4466 3.34409C15.2155 2.99741 14.3678 2.26722 13.6706 1.81423C10.4904 -0.252163 6.10899 0.155483 3.34893 2.77454C2.77569 3.31851 2.79011 3.32166 1.90705 2.45868C1.16013 1.72873 0.995863 1.65453 0.627659 1.88061L0.5 1.95897L0.508968 5.35367L0.517934 8.74833L0.711357 8.85314L0.904779 8.95795L4.15778 8.95795C7.78324 8.95795 7.55603 8.97315 7.71112 8.72042C7.88147 8.44291 7.79362 8.28744 7.03428 7.52284C6.17088 6.65343 6.16989 6.64047 6.91109 5.8916C9.00824 3.77273 11.9678 2.9799 14.7687 3.7866C15.4458 3.98158 15.7425 3.78786 15.4466 3.34409Z" fill="#658399"/>
</svg>
