<svg width="18" height="18" viewBox="0 0 18 18" fill="none" xmlns="http://www.w3.org/2000/svg">
<path fill-rule="evenodd" clip-rule="evenodd" d="M8.06825 0.0331666C7.9909 0.0494843 7.72193 0.0969255 7.47054 0.138599C3.73826 0.757092 0.696031 3.82892 0.12458 7.55609C0.0934282 7.75918 0.0524671 8.00173 0.033516 8.09507C-0.011172 8.31532 -0.011172 9.6806 0.033516 9.90086C0.0524671 9.99419 0.0934282 10.2367 0.12458 10.4398C0.695855 14.1657 3.74325 17.2426 7.47054 17.8569C7.72193 17.8984 8.00398 17.9477 8.09729 17.9666C8.31356 18.0103 9.69471 18.0115 9.88977 17.9681C9.97085 17.9501 10.2112 17.909 10.424 17.8768C14.1931 17.3062 17.3064 14.1923 17.8768 10.4222C17.909 10.2095 17.9501 9.96904 17.9681 9.88795C18.0115 9.69252 18.0103 8.31107 17.9665 8.09507C17.9475 8.00173 17.9065 7.75918 17.8754 7.55609C17.3036 3.82684 14.2601 0.753857 10.5294 0.139021C10.278 0.0975585 9.99599 0.0482183 9.90268 0.0293685C9.69896 -0.011848 8.26743 -0.00885876 8.06825 0.0331666ZM9.36916 3.02312C12.7027 3.43001 13.3989 7.4222 10.4683 9.32537C9.91051 9.68756 9.79983 9.83351 9.75515 10.2655C9.6067 11.7008 8.18495 11.4895 8.27292 10.0452C8.32436 9.20032 8.69754 8.64263 9.57066 8.10586C10.9226 7.27475 11.234 6.00741 10.3154 5.07494C9.19614 3.93878 7.43531 4.57475 7.14123 6.22137C6.92468 7.43381 5.63833 7.38683 5.652 6.16697C5.67254 4.34018 7.49958 2.79492 9.36916 3.02312ZM9.2731 12.8505C9.97426 13.1435 9.76031 14.2028 8.99998 14.2028C8.254 14.2028 8.02476 13.1748 8.70113 12.8625C8.87369 12.7829 9.09994 12.7781 9.2731 12.8505Z" fill="#658399"/>
</svg>
