<svg width="11" height="16" viewBox="0 0 11 16" fill="none" xmlns="http://www.w3.org/2000/svg">
<path fill-rule="evenodd" clip-rule="evenodd" d="M0.587779 0.557036C0.38834 0.6227 0.190523 0.799628 0.0867697 1.0052L0 1.17702V8.02124V14.8655L0.0831028 15.0289C0.337159 15.5287 0.828017 15.6441 1.28371 15.3112C1.40561 15.2221 2.28697 14.4597 3.24228 13.6168C5.53898 11.5905 5.38273 11.7024 5.70294 11.8546C5.79315 11.8975 6.72677 12.6915 7.77762 13.6191C9.73766 15.3492 9.93219 15.4977 10.2395 15.4984C10.5429 15.4991 10.8935 15.2304 10.9707 14.938C11.01 14.789 11.0097 1.25233 10.9703 1.1031C10.9174 0.902189 10.6465 0.632547 10.429 0.564146C10.172 0.483323 0.832109 0.476581 0.587779 0.557036Z" fill="#658399"/>
</svg>
