<svg width="13" height="16" viewBox="0 0 13 16" fill="none" xmlns="http://www.w3.org/2000/svg">
<path fill-rule="evenodd" clip-rule="evenodd" d="M1.13224 0.13675C0.562129 0.408938 0.238165 0.744531 0.0739467 1.23306L0 1.45312V8V14.5469L0.0739467 14.7669C0.243974 15.2728 0.590706 15.6206 1.19029 15.8866L1.44582 16H6.49329H11.5408L11.7963 15.8866C12.3861 15.6249 12.7297 15.2851 12.912 14.7835L12.9866 14.5781L12.9957 9.80531C13.0055 4.59378 13.0159 4.88316 12.8156 4.76025C12.7289 4.70703 12.5865 4.70197 10.7347 4.68644C8.94899 4.67144 8.73145 4.66419 8.59651 4.61513C8.27315 4.49759 8.0024 4.24247 7.86946 3.93003C7.81879 3.81094 7.81174 3.59644 7.8026 1.89844L7.79238 0L4.59728 0.0039375L1.40215 0.00790625L1.13224 0.13675ZM8.92154 0.476562C8.80613 0.558594 8.79682 0.676438 8.79755 2.04109C8.79859 3.95153 8.56967 3.75578 10.7881 3.74325C12.5163 3.7335 12.5025 3.73513 12.5025 3.5435C12.5025 3.39606 12.394 3.28956 10.8619 1.93369C9.13173 0.402469 9.08022 0.363781 8.92154 0.476562ZM10.1147 6.28484C10.6226 6.41684 10.6226 7.02066 10.1147 7.15266C9.92772 7.20125 2.85855 7.20125 2.67153 7.15266C2.17831 7.02447 2.15564 6.45641 2.63738 6.29694C2.81131 6.23938 9.89567 6.22791 10.1147 6.28484ZM10.1147 8.78484C10.6226 8.91684 10.6226 9.52066 10.1147 9.65266C9.92772 9.70125 2.85855 9.70125 2.67153 9.65266C2.17831 9.52447 2.15564 8.95641 2.63738 8.79694C2.81131 8.73938 9.89567 8.72791 10.1147 8.78484ZM5.3077 11.3281C5.68108 11.5035 5.68131 11.9244 5.30814 12.1067C5.14759 12.1851 2.96057 12.2251 2.68144 12.1547C2.17894 12.0281 2.1498 11.4603 2.63738 11.2962C2.87017 11.2178 5.13037 11.2448 5.3077 11.3281Z" fill="#658399"/>
</svg>
