<svg width="18" height="18" viewBox="0 0 18 18" fill="none" xmlns="http://www.w3.org/2000/svg">
<path fill-rule="evenodd" clip-rule="evenodd" d="M8.06827 0.0331634C7.99091 0.0494812 7.72194 0.0969225 7.47055 0.138596C3.73071 0.758322 0.697192 3.82136 0.12458 7.5561C0.0934284 7.7592 0.0524672 8.00175 0.0335161 8.09508C-0.011172 8.31534 -0.011172 9.68062 0.0335161 9.90088C0.0524672 9.99421 0.0934284 10.2368 0.12458 10.4399C0.697298 14.1752 3.73377 17.2411 7.47055 17.8569C7.72194 17.8984 8.00399 17.9477 8.09731 17.9666C8.31783 18.0112 9.6828 18.0111 9.90269 17.9665C9.99601 17.9475 10.2385 17.9066 10.4416 17.8754C14.2007 17.2988 17.2989 14.1998 17.8754 10.4399C17.9066 10.2368 17.9475 9.99421 17.9665 9.90088C18.0112 9.68062 18.0112 8.31534 17.9665 8.09508C17.9475 8.00175 17.9066 7.7592 17.8754 7.5561C17.2987 3.7946 14.2022 0.697411 10.4416 0.120555C10.2385 0.0893966 9.99601 0.0484262 9.90269 0.0294708C9.69926 -0.0118161 8.26776 -0.00893237 8.06827 0.0331634ZM9.42547 2.88379C9.68214 2.96999 9.76866 3.12026 9.80896 3.5498C9.85449 4.03543 9.97368 4.16287 10.4805 4.26789C11.7063 4.52194 11.8928 4.75478 11.6021 5.66869C11.4038 6.29203 11.2471 6.37035 10.6349 6.15221C9.33159 5.68775 8.19952 5.90709 8.12934 6.63766C8.08391 7.11046 8.44894 7.42324 9.63288 7.926C10.6807 8.37094 11.1943 8.69508 11.5463 9.13366C12.7412 10.6222 12.1988 12.6315 10.3958 13.3956C9.8303 13.6353 9.77183 13.7184 9.7385 14.3299C9.70028 15.0314 9.59336 15.1347 8.90588 15.1347C8.27771 15.1347 8.16344 15.0279 8.12217 14.4016C8.08426 13.8267 8.00653 13.7459 7.35881 13.6084C5.92946 13.3049 5.69428 13.0315 6.01156 12.0419C6.20993 11.4231 6.34681 11.3594 6.96246 11.5994C8.49521 12.1968 9.76153 12.0139 9.95086 11.1676C10.082 10.5816 9.71128 10.2211 8.42778 9.68649C6.5295 8.89585 5.84757 8.1178 5.91621 6.82099C5.97411 5.72742 6.45085 5.05599 7.5562 4.51128C8.17698 4.20536 8.26024 4.09162 8.26221 3.54698C8.26442 2.9479 8.76566 2.66213 9.42547 2.88379Z" fill="#658399"/>
</svg>
