<svg width="18" height="17" viewBox="0 0 18 17" fill="none" xmlns="http://www.w3.org/2000/svg">
<path fill-rule="evenodd" clip-rule="evenodd" d="M7.89685 0.421997C7.42901 0.652938 5.66713 1.50853 3.98161 2.32327C-0.0789554 4.28601 0.0745259 4.07461 2.03801 4.99977C3.65701 5.76262 2.92528 5.95402 7.61037 3.5422C12.3716 1.09118 12.1111 1.39331 10.2423 0.489279C8.9135 -0.153479 9.05441 -0.149455 7.89685 0.421997ZM14.0354 2.81773C13.1358 3.24297 6.66844 6.60239 6.56753 6.69687C6.25326 6.99111 6.40232 7.13167 7.66882 7.73543L8.6931 8.2237H8.99436H9.29561L11.5249 7.149C18.4497 3.81071 17.9648 4.23336 15.9761 3.26908C14.564 2.58439 14.5406 2.57893 14.0354 2.81773ZM0.138192 4.81464C-0.00846095 4.95589 -0.00733626 4.92115 0.00515593 8.95881C0.0182908 13.2215 -0.00930447 12.8634 0.323968 13.0935C0.561922 13.2578 8.18875 16.9496 8.34384 16.9756C8.8095 17.0535 8.79352 17.1981 8.79352 12.9114C8.79352 8.38747 8.87678 8.8201 7.90982 8.31915C5.78442 7.21799 5.78109 7.21872 5.78069 8.77755C5.78037 10.2201 5.68718 10.3286 4.98597 9.70282C4.56449 9.32671 4.47033 9.28586 3.93879 9.24833C3.21063 9.19695 3.21557 9.20801 3.21224 7.624C3.20878 5.99275 3.26393 6.10422 2.18591 5.54967C0.523803 4.69462 0.333648 4.62637 0.138192 4.81464ZM17.0234 4.95613C16.7718 5.08473 15.3549 5.77156 13.8747 6.48241C9.45789 8.60356 9.37197 8.65099 9.25436 9.03247C9.16294 9.32892 9.16591 16.5281 9.25753 16.7486C9.4227 17.1462 9.23946 17.2159 13.634 15.0848C17.5511 13.1853 17.7691 13.072 17.8986 12.8665C17.9728 12.749 18.0405 5.40822 17.9709 5.03711C17.8998 4.65864 17.6474 4.63705 17.0234 4.95613Z" fill="#658399"/>
</svg>
