<svg width="14" height="14" viewBox="0 0 14 14" fill="none" xmlns="http://www.w3.org/2000/svg">
<path fill-rule="evenodd" clip-rule="evenodd" d="M6.04297 0.0372506C5.96025 0.0577958 5.72646 0.105862 5.52344 0.144091C3.28732 0.564995 1.27151 2.30491 0.454098 4.51962C0.0154219 5.70813 0.0881289 5.81094 1.36719 5.81094C2.34765 5.81094 2.44923 5.77508 2.64444 5.36017C3.0502 4.49768 3.11571 4.38381 3.41969 4.01256C4.88422 2.22395 7.56511 1.80367 9.50441 3.05868C10.1482 3.47533 10.1413 3.58923 9.42777 4.31825C8.70505 5.05663 8.61454 5.38137 9.05078 5.6708C9.26658 5.81399 9.21569 5.81094 11.3887 5.81094C13.6638 5.81094 13.4927 5.82579 13.8284 5.59898L13.9987 5.48396L13.9993 3.1896L14 0.895244L13.8768 0.810829C13.3816 0.471234 13.2373 0.523932 12.3706 1.36108C11.8643 1.85 11.8027 1.85021 11.1489 1.36539C10.5877 0.949169 9.92395 0.60426 9.22619 0.366274C8.90679 0.257335 8.75005 0.21698 8.02539 0.0570601C7.73391 -0.00727304 6.28064 -0.0217964 6.04297 0.0372506ZM0.615234 8.14089C0.444008 8.17612 0.354785 8.21604 0.171555 8.33939L0.0013125 8.45403L0.00065625 10.7484L0 13.0427L0.123156 13.1272C0.595957 13.4514 0.757996 13.4031 1.44796 12.7324C2.11526 12.0838 2.1823 12.0696 2.68991 12.4696C3.28202 12.936 4.04707 13.3449 4.78516 13.5893C5.06959 13.6835 5.23966 13.7263 5.94727 13.8819C8.81524 14.5123 12.2145 12.5531 13.415 9.57777C13.9383 8.28073 13.8511 8.12705 12.5918 8.12705C11.6578 8.12705 11.549 8.16675 11.3556 8.57781C10.9498 9.4403 10.8843 9.55417 10.5803 9.92543C9.17131 11.6462 6.67289 12.1037 4.72462 10.9978C3.84412 10.498 3.8328 10.3708 4.59925 9.59167C5.35962 8.81866 5.4034 8.42525 4.75781 8.16601C4.64844 8.12209 0.819438 8.09887 0.615234 8.14089Z" fill="#658399"/>
</svg>
