<svg width="18" height="14" viewBox="0 0 18 14" fill="none" xmlns="http://www.w3.org/2000/svg">
<path fill-rule="evenodd" clip-rule="evenodd" d="M1.81024 0.0256558C1.08303 0.127786 0.519386 0.581025 0.160249 1.35244L0 1.69662V7.00374V12.3109L0.160249 12.655C0.478532 13.3387 0.886011 13.7153 1.5308 13.9218C1.85654 14.0261 16.1435 14.0261 16.4692 13.9218C17.114 13.7153 17.5215 13.3387 17.8398 12.655L18 12.3109V7.00374V1.69662L17.8398 1.35244C17.5258 0.678013 17.1381 0.314867 16.4886 0.0866785C16.308 0.0232483 2.24391 -0.0352211 1.81024 0.0256558ZM6.09825 3.1933C7.206 3.49265 7.793 4.81921 7.29397 5.89559C6.62488 7.3388 4.62483 7.3388 3.95574 5.89559C3.27632 4.4301 4.58183 2.7835 6.09825 3.1933ZM15.2451 3.5436C15.8292 3.69622 15.8292 4.47525 15.2451 4.62786C15.0501 4.67878 11.2334 4.68473 11.0243 4.63443C10.4217 4.4894 10.41 3.68524 11.0083 3.53868C11.2036 3.49086 15.0603 3.49535 15.2451 3.5436ZM15.3916 6.71055C15.8571 6.98707 15.7638 7.60821 15.2378 7.73481C15.0322 7.78427 11.1604 7.77891 10.9864 7.7289C10.5489 7.60317 10.4143 7.14132 10.7221 6.82202C10.9265 6.60996 10.9463 6.60831 13.2014 6.61484L15.2405 6.62075L15.3916 6.71055ZM7.43548 7.85467C8.73797 8.23912 9.56808 10.231 8.65728 10.7865L8.49021 10.8883H5.62485H2.7595L2.59243 10.7865C1.6085 10.1864 2.59324 8.09792 3.99002 7.82242C4.38431 7.74462 7.15042 7.77052 7.43548 7.85467ZM15.2378 9.77428C15.7638 9.90088 15.8571 10.522 15.3916 10.7985L15.2405 10.8883H13.131H11.0216L10.8751 10.8071C10.4103 10.5493 10.4676 9.93178 10.9701 9.78219C11.1257 9.73587 15.048 9.72861 15.2378 9.77428Z" fill="#658399"/>
</svg>
