<svg width="13" height="17" viewBox="0 0 13 17" fill="none" xmlns="http://www.w3.org/2000/svg">
<path d="M10.5165 6.14996H10.2466V4.57137C10.2466 3.56251 9.84587 2.59497 9.1325 1.8816C8.41913 1.16822 7.45159 0.767456 6.44273 0.767456C5.43387 0.767456 4.46633 1.16822 3.75296 1.8816C3.03959 2.59497 2.63882 3.56251 2.63882 4.57137V6.14996H2.36893C1.82871 6.14996 1.31062 6.36457 0.928625 6.74656C0.546633 7.12855 0.332031 7.64665 0.332031 8.18687V14.0073C0.332031 14.5475 0.546633 15.0656 0.928625 15.4476C1.31062 15.8296 1.82871 16.0442 2.36893 16.0442H10.5165C11.0568 16.0442 11.5748 15.8296 11.9568 15.4476C12.3388 15.0656 12.5534 14.5475 12.5534 14.0073V8.18687C12.5534 7.64665 12.3388 7.12855 11.9568 6.74656C11.5748 6.36457 11.0568 6.14996 10.5165 6.14996ZM3.65727 4.57137C3.65727 4.20558 3.72932 3.84337 3.8693 3.50542C4.00928 3.16747 4.21446 2.8604 4.47311 2.60175C4.73177 2.34309 5.03883 2.13792 5.37678 1.99794C5.71473 1.85795 6.07694 1.78591 6.44273 1.78591C6.80852 1.78591 7.17073 1.85795 7.50868 1.99794C7.84663 2.13792 8.1537 2.34309 8.41235 2.60175C8.671 2.8604 8.87618 3.16747 9.01616 3.50542C9.15615 3.84337 9.22819 4.20558 9.22819 4.57137V6.14996H3.65727V4.57137ZM11.535 14.0073C11.535 14.2774 11.4277 14.5365 11.2367 14.7275C11.0457 14.9185 10.7866 15.0258 10.5165 15.0258H2.36893C2.09882 15.0258 1.83977 14.9185 1.64878 14.7275C1.45778 14.5365 1.35048 14.2774 1.35048 14.0073V8.18687C1.35048 7.91676 1.45778 7.65771 1.64878 7.46671C1.83977 7.27572 2.09882 7.16842 2.36893 7.16842H10.5165C10.7866 7.16842 11.0457 7.27572 11.2367 7.46671C11.4277 7.65771 11.535 7.91676 11.535 8.18687V14.0073Z" fill="#658399"/>
<path d="M6.44264 9.38647C6.24507 9.38653 6.05202 9.44557 5.88823 9.55604C5.72443 9.66651 5.59736 9.82338 5.52329 10.0065C5.44921 10.1897 5.43152 10.3908 5.47247 10.5841C5.51343 10.7773 5.61116 10.954 5.75315 11.0914V12.2987C5.75315 12.4338 5.8068 12.5633 5.9023 12.6588C5.99779 12.7543 6.12732 12.808 6.26237 12.808H6.6229C6.75796 12.808 6.88748 12.7543 6.98298 12.6588C7.07848 12.5633 7.13213 12.4338 7.13213 12.2987V11.0914C7.27412 10.954 7.37185 10.7773 7.4128 10.5841C7.45376 10.3908 7.43606 10.1897 7.36199 10.0065C7.28792 9.82338 7.16084 9.66651 6.99705 9.55604C6.83325 9.44557 6.6402 9.38653 6.44264 9.38647Z" fill="#658399"/>
</svg>
