<svg width="16" height="16" viewBox="0 0 16 16" fill="none" xmlns="http://www.w3.org/2000/svg">
<path d="M8.44276 0.579346C5.97371 0.579346 3.66283 1.80069 2.27015 3.84797C1.42224 5.08689 0.974121 6.54107 0.974121 8.04798C0.974121 9.55489 1.42224 11.0091 2.27015 12.248C3.66283 14.2953 5.97371 15.5166 8.44276 15.5166C10.9118 15.5166 13.2227 14.2953 14.6154 12.248C15.4633 11.0091 15.9114 9.55489 15.9114 8.04798C15.9114 6.54107 15.4633 5.08689 14.6154 3.84797C13.2227 1.80069 10.9162 0.579346 8.44276 0.579346ZM13.3545 3.65467H11.3995C11.1446 2.9078 10.8239 2.27517 10.4549 1.77872C11.5708 2.13897 12.5725 2.78479 13.3545 3.65467ZM5.70572 7.60865C5.73647 6.51911 5.89024 5.46471 6.14505 4.53333H10.7361C10.9909 5.46471 11.1446 6.51911 11.1754 7.60865H5.70572ZM11.1798 8.48731C11.149 9.57685 10.9953 10.6312 10.7405 11.5626H6.14505C5.89024 10.6312 5.73647 9.57685 5.70572 8.48731H11.1798ZM8.44276 1.45801C9.17644 1.45801 9.91891 2.27077 10.4505 3.65467H6.43501C6.9666 2.27077 7.70907 1.45801 8.44276 1.45801ZM6.43062 1.77872C6.06158 2.27517 5.74087 2.9078 5.48606 3.65467H3.53103C4.31304 2.78479 5.31472 2.13897 6.43062 1.77872ZM2.86764 4.53333H5.22685C4.98961 5.4735 4.85342 6.52789 4.82706 7.60865H1.86596C1.94065 6.51471 2.28333 5.46032 2.86764 4.53333ZM2.86764 11.5626C2.28333 10.6356 1.93626 9.58125 1.86596 8.48731H4.82706C4.85781 9.56807 4.994 10.6225 5.22685 11.5626H2.86764ZM3.53103 12.4413H5.48606C5.74087 13.1882 6.06158 13.8208 6.43062 14.3172C5.31472 13.957 4.31304 13.3112 3.53103 12.4413ZM8.44276 14.638C7.70907 14.638 6.9666 13.8252 6.43501 12.4413H10.4505C9.91891 13.8252 9.17644 14.638 8.44276 14.638ZM10.4549 14.3172C10.8239 13.8252 11.1446 13.1882 11.3995 12.4413H13.3545C12.5725 13.3112 11.5708 13.957 10.4549 14.3172ZM14.0179 11.5626H11.6587C11.8959 10.6225 12.0321 9.56807 12.0585 8.48731H15.0195C14.9449 9.58125 14.6022 10.6356 14.0179 11.5626ZM12.0585 7.60865C12.0277 6.52789 11.8915 5.4735 11.6587 4.53333H14.0179C14.6022 5.46032 14.9493 6.51471 15.0195 7.60865H12.0585Z" fill="#658399"/>
</svg>
