<svg width="28" height="28" viewBox="0 0 28 28" fill="none" xmlns="http://www.w3.org/2000/svg">
<path d="M5.93629 24.2666C5.61122 24.2666 5.28592 24.1422 5.03852 23.8946C4.54185 23.3981 4.54185 22.5955 5.03852 22.099L22.098 5.03932C22.5944 4.54288 23.3971 4.54288 23.8935 5.03932C24.3902 5.53575 24.3902 6.33842 23.8935 6.83486L6.83406 23.8946C6.58502 24.1434 6.26135 24.2666 5.93629 24.2666Z" fill="white"/>
<path d="M22.9958 24.2666C22.6707 24.2666 22.3456 24.1422 22.098 23.8946L5.03852 6.83486C4.54185 6.33842 4.54185 5.53575 5.03852 5.03932C5.53495 4.54288 6.33739 4.54288 6.83406 5.03932L23.8935 22.099C24.3902 22.5955 24.3902 23.3981 23.8935 23.8946C23.6459 24.1434 23.3208 24.2666 22.9958 24.2666Z" fill="white"/>
</svg>
