<svg width="14" height="18" viewBox="0 0 14 18" fill="none" xmlns="http://www.w3.org/2000/svg">
<path fill-rule="evenodd" clip-rule="evenodd" d="M3.51288 0.202148C3.27514 0.767883 3.40826 1.86929 3.73393 2.03098L3.89466 2.11078L7.06036 2.10129C10.6009 2.09067 10.2976 2.11286 10.4983 1.84985C10.617 1.69432 10.6299 0.585316 10.517 0.241453L10.4377 0H7.01778H3.59782L3.51288 0.202148ZM1.3008 1.10798C0.713629 1.23289 0.241343 1.68757 0.0779908 2.28516C-0.00551635 2.59063 -0.0325144 16.3622 0.0497003 16.7083C0.168499 17.2085 0.427637 17.5395 0.924767 17.826L1.22674 18H6.98557H12.7444L13.0203 17.8506C13.4923 17.595 13.8006 17.226 13.9225 16.7705C14.0054 16.4609 14.0323 2.68921 13.9507 2.34636C13.6578 1.11575 11.6678 0.466945 11.6674 1.60193C11.6672 2.38542 11.1861 2.99531 10.4656 3.12578C10.1842 3.17672 3.82476 3.17914 3.5495 3.12841C2.83262 2.99626 2.33689 2.36584 2.33351 1.58203C2.33154 1.12433 1.98085 0.963352 1.3008 1.10798ZM5.45498 5.36488C6.01515 5.58436 5.86587 5.97224 4.83284 6.98126C3.75543 8.03366 3.62626 8.06892 2.99618 7.48287C2.21629 6.75742 2.45637 5.94654 3.33276 6.34605C3.72021 6.52268 3.77503 6.49934 4.42115 5.88252C5.00093 5.32905 5.16012 5.24936 5.45498 5.36488ZM11.1827 6.41907C11.5845 6.62439 11.5845 7.08655 11.1827 7.29186C11.0113 7.37944 7.44346 7.42669 7.13546 7.34548C6.5969 7.20345 6.56667 6.56371 7.0899 6.38033C7.35274 6.28819 10.994 6.32268 11.1827 6.41907ZM5.49565 9.15993C5.75623 9.29187 5.82272 9.64441 5.6384 9.91687C5.48725 10.1404 4.06304 11.5061 3.90719 11.5771C3.31226 11.8478 2.24939 10.7786 2.58493 10.247C2.73055 10.0163 2.97231 9.97481 3.29654 10.125C3.72456 10.3233 3.76351 10.3075 4.43889 9.66189C5.02197 9.10448 5.20988 9.01522 5.49565 9.15993ZM11.1827 9.9347C11.5845 10.14 11.5845 10.6022 11.1827 10.8075C11.0113 10.8951 7.44346 10.9423 7.13546 10.8611C6.5969 10.7191 6.56667 10.0793 7.0899 9.89596C7.35274 9.80381 10.994 9.8383 11.1827 9.9347ZM5.49565 12.6756C5.75623 12.8075 5.82272 13.16 5.6384 13.4325C5.48725 13.656 4.06304 15.0217 3.90719 15.0927C3.31226 15.3635 2.24939 14.2942 2.58493 13.7626C2.73055 13.5319 2.97231 13.4904 3.29654 13.6407C3.72456 13.8389 3.76351 13.8232 4.43889 13.1775C5.02197 12.6201 5.20988 12.5308 5.49565 12.6756ZM11.0742 13.3986C11.4776 13.5083 11.6255 13.936 11.3524 14.2034C11.1398 14.4116 11.1177 14.4137 9.10039 14.4137C7.08305 14.4137 7.061 14.4116 6.84839 14.2034C6.58365 13.9442 6.7054 13.5453 7.0899 13.4122C7.27523 13.348 10.8433 13.3358 11.0742 13.3986Z" fill="#658399"/>
</svg>
