<svg width="18" height="18" viewBox="0 0 18 18" fill="none" xmlns="http://www.w3.org/2000/svg">
<path fill-rule="evenodd" clip-rule="evenodd" d="M8.27353 0.179895C7.4973 0.608906 7.15726 1.2459 7.27217 2.0559C7.34648 2.57959 7.31802 2.61074 6.51579 2.88439C6.23326 2.98076 5.73611 3.18558 5.41096 3.33953C4.09443 3.96295 3.26346 3.97016 2.10801 3.36811C1.59056 3.09853 1.43882 3.11337 1.18932 3.458C0.93303 3.81206 1.14881 4.09264 2.00251 4.51536C2.3213 4.67318 2.40653 4.8138 2.32056 5.04007C2.25753 5.2059 0.237069 8.4684 0.114178 8.60277L0 8.72757V9.37554V10.0235L0.142424 10.4522C1.4111 14.2703 7.37012 13.4812 7.39204 9.49219C7.39598 8.7789 7.5064 9.03277 6.22616 6.81251C5.1598 4.96315 5.13219 4.90518 5.22659 4.71213C5.44079 4.27405 7.9349 3.43164 8.28699 3.67843C8.47491 3.81013 8.4669 3.56463 8.46479 9.14829C8.4624 15.3564 8.5523 14.6851 7.71691 14.7326C6.02858 14.8288 4.98745 15.8614 4.92783 17.499L4.9096 18H8.97174H13.0339L13.0336 17.6221C13.0324 15.9303 11.9804 14.8376 10.2516 14.7326C9.43836 14.6833 9.52507 15.3475 9.52268 9.14829C9.52054 3.5216 9.51077 3.8038 9.7126 3.67147C10.1476 3.38625 12.9285 4.44537 12.9285 4.89628C12.9285 5.03462 12.9341 5.02481 11.7763 6.9082C10.4537 9.0598 10.4309 9.12663 10.657 10.1929C11.2918 13.1861 15.7466 13.9402 17.4505 11.343C17.6225 11.0807 17.6955 10.9275 17.8981 10.4035C17.9894 10.1672 18.0414 8.68359 17.9583 8.68359C17.8974 8.68359 16.2202 5.86339 15.832 5.1082C15.6738 4.80037 15.7573 4.6536 16.2484 4.37674C16.8791 4.02121 17.0269 3.77406 16.7982 3.458C16.5486 3.11337 16.3969 3.09853 15.8795 3.36811C14.724 3.97016 13.893 3.96295 12.5765 3.33953C12.2514 3.18558 11.7542 2.98076 11.4717 2.88439C10.6695 2.61074 10.641 2.57959 10.7153 2.0559C10.8307 1.24242 10.4704 0.57041 9.70118 0.164566L9.38925 0L8.98948 0.00256641L8.58972 0.00516797L8.27353 0.179895ZM4.0326 5.19434C4.17401 5.34741 5.958 8.43244 6.00623 8.60727C6.11384 8.99729 6.0981 9 3.71276 9C1.19715 9 1.165 8.99089 1.53094 8.38269C3.57336 4.9879 3.69671 4.83064 4.0326 5.19434ZM14.6041 5.17676C14.7548 5.33545 16.5707 8.49892 16.5997 8.65304C16.619 8.75623 16.6076 8.79641 16.5355 8.8804L16.4478 8.98242L14.3807 8.99318C11.4407 9.00851 11.5878 9.23024 13.0055 6.9198C14.2465 4.89758 14.292 4.84798 14.6041 5.17676Z" fill="#658399"/>
</svg>
