<svg width="14" height="9" viewBox="0 0 14 9" fill="none" xmlns="http://www.w3.org/2000/svg">
<path id="Vector" d="M7.69526 8.78169L13.7815 2.69534C13.9224 2.55457 14 2.36665 14 2.16628C14 1.96591 13.9224 1.778 13.7815 1.63723L13.3334 1.18901C13.0414 0.89735 12.5668 0.89735 12.2753 1.18901L7.16443 6.29987L2.04789 1.18334C1.90701 1.04257 1.7192 0.964843 1.51895 0.964843C1.31847 0.964843 1.13066 1.04257 0.989669 1.18334L0.541674 1.63155C0.400792 1.77244 0.32318 1.96024 0.32318 2.16061C0.32318 2.36098 0.400792 2.5489 0.541674 2.68967L6.63348 8.78169C6.77481 8.9228 6.9635 9.0003 7.16409 8.99985C7.36546 9.0003 7.55404 8.9228 7.69526 8.78169Z" fill="#658399"/>
</svg>
