<svg width="16" height="16" viewBox="0 0 16 16" fill="none" xmlns="http://www.w3.org/2000/svg">
<path fill-rule="evenodd" clip-rule="evenodd" d="M5.98958 0.160031C5.72253 0.438248 5.70443 0.493998 5.56404 1.46874C5.42851 2.40974 5.41703 2.4299 4.82347 2.7693C4.33971 3.04589 4.27666 3.04143 3.29244 2.66052C1.91991 2.1293 1.98829 2.09305 0.885707 3.93748C0.030329 5.36835 0.027425 5.37385 0.00632207 5.59938C-0.0295593 5.9826 0.0836026 6.12791 0.903293 6.75116C1.74715 7.39275 1.72456 7.35841 1.72456 7.99997C1.72456 8.63778 1.73863 8.61575 0.952081 9.2104C-0.304059 10.1601 -0.301606 10.0781 0.867024 12.0312C2.0021 13.9281 1.91042 13.8807 3.35407 13.3175C4.26772 12.961 4.34404 12.9565 4.82347 13.2306C5.42538 13.5748 5.42358 13.5715 5.58256 14.6406C5.70269 15.4483 5.74925 15.5882 5.9769 15.825L6.14521 16L8.00423 16L9.86326 15.9999L10.0099 15.8481C10.2762 15.5724 10.2834 15.5502 10.4343 14.5522C10.5818 13.5763 10.5811 13.5774 11.184 13.229C11.6596 12.9541 11.7254 12.9589 12.7087 13.3394C14.0815 13.8707 14.0163 13.9053 15.1171 12.0615C15.9807 10.6151 15.9755 10.625 15.9951 10.3879C16.0268 10.0059 15.9235 9.87477 15.0958 9.2464C14.2839 8.62993 14.2605 8.59418 14.2605 7.97284C14.2605 7.39763 14.2828 7.36594 15.1538 6.70654C15.9222 6.12469 16.0264 5.98916 15.9951 5.61204C15.9754 5.37426 15.9769 5.37707 15.1151 3.93452C14.0167 2.09602 14.0824 2.13087 12.7087 2.65808C11.6838 3.05146 11.6786 3.05168 11.1144 2.72605C10.5837 2.41974 10.5802 2.41321 10.4343 1.44778C10.2834 0.449154 10.2835 0.449592 10.0169 0.162437L9.86613 0H8.00465H6.14317L5.98958 0.160031ZM8.6771 5.42182C10.5798 5.8716 11.3702 8.16394 10.1385 9.66009C9.00071 11.0421 6.766 10.9605 5.7416 9.49959C4.33094 7.48778 6.23391 4.84429 8.6771 5.42182Z" fill="#658399"/>
</svg>
