<svg width="18" height="20" viewBox="0 0 18 20" fill="none" xmlns="http://www.w3.org/2000/svg">
<path fill-rule="evenodd" clip-rule="evenodd" d="M6.84026 0.0319492C5.00006 0.327583 4.03151 1.68728 4.08277 3.90304C4.10066 4.67515 4.10438 4.68164 4.52727 4.68164C4.96297 4.68164 4.95 4.71166 4.98144 3.62959C5.09217 -0.183722 9.4333 -0.125322 9.55861 3.69117C9.59038 4.65873 9.5991 4.67776 10.0111 4.68021C10.57 4.68348 10.6087 2.8886 10.0735 1.78207C9.49921 0.594589 8.08911 -0.168652 6.84026 0.0319492ZM1.48301 4.84263C1.25384 4.92549 1.09451 5.0971 1.02684 5.33392C0.946931 5.61363 -0.0287817 16.2195 0.000652551 16.4886C0.0471989 16.9141 0.277474 17.2409 0.648739 17.4083L0.863335 17.5051L4.1793 17.5176C8.3959 17.5334 8.05652 17.6304 7.79673 16.4841C7.06001 13.2337 9.62247 9.90002 12.9809 9.7396C13.9787 9.69194 13.9355 9.84395 13.6956 7.22416C13.4579 4.627 13.5977 4.80416 11.785 4.80416C10.3199 4.80416 10.4599 4.72722 10.4239 5.55229C10.3904 6.32211 10.2672 6.54799 9.91641 6.48236C9.63451 6.4296 9.55673 6.24517 9.52255 5.54878C9.49766 5.04164 9.48558 4.97462 9.40477 4.894L9.31475 4.80416H7.2295C4.74056 4.80416 5.01726 4.71538 4.97882 5.52628C4.94381 6.26497 4.83521 6.49898 4.52727 6.49898C4.21934 6.49898 4.11073 6.26497 4.07573 5.52628C4.05358 5.05879 4.03422 4.92778 3.9792 4.87285C3.88369 4.77749 1.73515 4.75148 1.48301 4.84263ZM12.5809 10.7672C9.26312 11.3236 7.58017 15.1314 9.42769 17.9015C11.7802 21.4286 17.2171 20.2908 17.9335 16.1214C18.4677 13.0121 15.7005 10.2439 12.5809 10.7672ZM15.4972 13.8289C15.7409 13.9546 15.7543 14.296 15.5266 14.5793C15.2885 14.8756 13.2197 16.8155 13.0626 16.8899C12.6856 17.0683 12.4893 16.9692 11.6408 16.1718C10.9362 15.5098 10.8193 15.243 11.1166 14.9746C11.3493 14.7645 11.6435 14.8644 12.1737 15.3335C12.7994 15.887 12.751 15.9058 14.1477 14.5684C14.9762 13.7751 15.1783 13.6643 15.4972 13.8289Z" fill="#658399"/>
</svg>
