<svg width="14" height="16" viewBox="0 0 14 16" fill="none" xmlns="http://www.w3.org/2000/svg">
<path d="M10.23 7.61472C10.9551 6.84446 11.4034 5.81082 11.4034 4.67183C11.4034 2.30085 9.47424 0.371704 7.10326 0.371704C4.73228 0.371704 2.80314 2.30085 2.80314 4.67183C2.80314 5.81082 3.25143 6.84446 3.97653 7.61472C1.82755 8.81392 0.653076 11.3542 0.653076 14.8846C0.653076 15.1819 0.893883 15.4221 1.19059 15.4221H13.0159C13.3132 15.4221 13.5534 15.1819 13.5534 14.8846C13.5534 11.3537 12.379 8.81392 10.23 7.61472ZM7.10326 1.44673C8.8819 1.44673 10.3284 2.89319 10.3284 4.67183C10.3284 6.45047 8.8819 7.89692 7.10326 7.89692C5.32462 7.89692 3.87817 6.45047 3.87817 4.67183C3.87817 2.89319 5.32462 1.44673 7.10326 1.44673ZM1.73778 14.3471C1.82217 12.0713 2.48385 9.40572 4.89998 8.35757C5.545 8.74512 6.29752 8.97195 7.10326 8.97195C7.909 8.97195 8.66152 8.74512 9.30654 8.35757C11.7221 9.40519 12.3843 12.0713 12.4682 14.3471H1.73778Z" fill="#658399"/>
</svg>
