<svg width="16" height="16" viewBox="0 0 16 16" fill="none" xmlns="http://www.w3.org/2000/svg">
<path fill-rule="evenodd" clip-rule="evenodd" d="M7.32114 0.039712C0.462542 0.749716 -2.46261 8.95073 2.43705 13.7329C7.11625 18.2999 15.0122 15.5725 15.9253 9.07384C16.6266 4.08198 12.2871 -0.474333 7.32114 0.039712ZM8.25941 3.78164C8.33515 3.816 8.44096 3.89614 8.49455 3.95969C8.69801 4.20091 8.69818 4.20217 8.71736 5.59071C8.74267 7.42474 8.58872 7.26927 10.4043 7.29444C11.8115 7.31395 11.8124 7.31406 12.053 7.51683C12.4473 7.84918 12.3287 8.42235 11.8182 8.65151C11.7191 8.69599 11.4803 8.70805 10.4043 8.72296C8.58872 8.74813 8.74267 8.59266 8.71736 10.4267C8.69818 11.8152 8.69801 11.8165 8.49455 12.0577C8.23206 12.3689 7.77295 12.3689 7.51045 12.0577C7.307 11.8165 7.30683 11.8152 7.28765 10.4267C7.26233 8.59266 7.41629 8.74813 5.60068 8.72296C4.19355 8.70345 4.19259 8.70335 3.95204 8.50058C3.55769 8.16822 3.67629 7.59505 4.18684 7.36589C4.28594 7.32141 4.52469 7.30936 5.60068 7.29444C7.41629 7.26927 7.26233 7.42474 7.28765 5.59071C7.30233 4.52625 7.31425 4.29374 7.35916 4.1944C7.53788 3.79887 7.91583 3.6256 8.25941 3.78164Z" fill="white"/>
</svg>
